<svg xmlns="http://www.w3.org/2000/svg" xmlns:xlink="http://www.w3.org/1999/xlink" viewBox="0 0 1318.83 1988.32">
  <defs>
    <style>
      .cls-1 {
        fill: #5196d1;
        opacity: 0.68;
      }

      .cls-2 {
        fill: #686969;
      }

      .cls-3 {
        fill: #f2bf5a;
      }

      .cls-16, .cls-241, .cls-242, .cls-4 {
        fill: #fff;
      }

      .cls-4 {
        opacity: 0.35;
      }

      .cls-100, .cls-101, .cls-102, .cls-103, .cls-104, .cls-105, .cls-106, .cls-107, .cls-108, .cls-109, .cls-110, .cls-111, .cls-112, .cls-113, .cls-114, .cls-115, .cls-12, .cls-14, .cls-16, .cls-17, .cls-18, .cls-19, .cls-20, .cls-21, .cls-22, .cls-23, .cls-24, .cls-25, .cls-26, .cls-27, .cls-28, .cls-29, .cls-30, .cls-31, .cls-32, .cls-33, .cls-34, .cls-35, .cls-36, .cls-37, .cls-38, .cls-39, .cls-40, .cls-41, .cls-42, .cls-43, .cls-44, .cls-45, .cls-46, .cls-47, .cls-48, .cls-49, .cls-5, .cls-50, .cls-51, .cls-52, .cls-53, .cls-54, .cls-55, .cls-56, .cls-57, .cls-58, .cls-59, .cls-6, .cls-60, .cls-61, .cls-62, .cls-63, .cls-64, .cls-65, .cls-66, .cls-67, .cls-68, .cls-69, .cls-7, .cls-70, .cls-71, .cls-72, .cls-73, .cls-74, .cls-75, .cls-76, .cls-77, .cls-78, .cls-79, .cls-8, .cls-80, .cls-81, .cls-82, .cls-83, .cls-84, .cls-85, .cls-86, .cls-87, .cls-88, .cls-89, .cls-9, .cls-90, .cls-91, .cls-92, .cls-93, .cls-94, .cls-95, .cls-96, .cls-97, .cls-98, .cls-99 {
        stroke: #010101;
      }

      .cls-100, .cls-101, .cls-102, .cls-103, .cls-104, .cls-105, .cls-106, .cls-107, .cls-108, .cls-109, .cls-110, .cls-111, .cls-112, .cls-113, .cls-114, .cls-115, .cls-12, .cls-13, .cls-14, .cls-16, .cls-17, .cls-18, .cls-19, .cls-20, .cls-21, .cls-22, .cls-23, .cls-24, .cls-25, .cls-26, .cls-27, .cls-28, .cls-29, .cls-30, .cls-31, .cls-32, .cls-33, .cls-34, .cls-35, .cls-36, .cls-37, .cls-38, .cls-39, .cls-40, .cls-41, .cls-42, .cls-43, .cls-44, .cls-45, .cls-46, .cls-47, .cls-48, .cls-49, .cls-5, .cls-50, .cls-51, .cls-52, .cls-53, .cls-54, .cls-55, .cls-56, .cls-57, .cls-58, .cls-59, .cls-6, .cls-60, .cls-61, .cls-62, .cls-63, .cls-64, .cls-65, .cls-66, .cls-67, .cls-68, .cls-69, .cls-7, .cls-70, .cls-71, .cls-72, .cls-73, .cls-74, .cls-75, .cls-76, .cls-77, .cls-78, .cls-79, .cls-8, .cls-80, .cls-81, .cls-82, .cls-83, .cls-84, .cls-85, .cls-86, .cls-87, .cls-88, .cls-89, .cls-9, .cls-90, .cls-91, .cls-92, .cls-93, .cls-94, .cls-95, .cls-96, .cls-97, .cls-98, .cls-99 {
        stroke-miterlimit: 10;
      }

      .cls-5 {
        fill: url(#radial-gradient);
      }

      .cls-6 {
        fill: url(#radial-gradient-2);
      }

      .cls-7 {
        fill: url(#radial-gradient-3);
      }

      .cls-8 {
        fill: url(#radial-gradient-4);
      }

      .cls-9 {
        fill: url(#radial-gradient-5);
      }

      .cls-10 {
        fill: #96c678;
      }

      .cls-11 {
        fill: #60b8cd;
      }

      .cls-12, .cls-13 {
        fill: none;
      }

      .cls-13 {
        stroke: #837260;
        stroke-width: 2px;
      }

      .cls-14 {
        fill: url(#radial-gradient-6);
      }

      .cls-15 {
        fill: #91b27b;
      }

      .cls-17 {
        fill: #9e9e9e;
      }

      .cls-18 {
        fill: url(#radial-gradient-7);
      }

      .cls-19 {
        fill: url(#radial-gradient-8);
      }

      .cls-20 {
        fill: url(#radial-gradient-9);
      }

      .cls-21 {
        fill: url(#radial-gradient-10);
      }

      .cls-22 {
        fill: url(#radial-gradient-11);
      }

      .cls-23 {
        fill: url(#radial-gradient-12);
      }

      .cls-24 {
        fill: url(#radial-gradient-13);
      }

      .cls-25 {
        fill: url(#radial-gradient-14);
      }

      .cls-26 {
        fill: url(#radial-gradient-15);
      }

      .cls-27 {
        fill: url(#radial-gradient-16);
      }

      .cls-28 {
        fill: url(#radial-gradient-17);
      }

      .cls-29 {
        fill: url(#radial-gradient-18);
      }

      .cls-30 {
        fill: url(#radial-gradient-19);
      }

      .cls-31 {
        fill: url(#radial-gradient-20);
      }

      .cls-32 {
        fill: url(#radial-gradient-21);
      }

      .cls-33 {
        fill: url(#radial-gradient-22);
      }

      .cls-34 {
        fill: url(#radial-gradient-23);
      }

      .cls-35 {
        fill: url(#radial-gradient-24);
      }

      .cls-36 {
        fill: url(#radial-gradient-25);
      }

      .cls-37 {
        fill: url(#radial-gradient-26);
      }

      .cls-38 {
        fill: url(#radial-gradient-27);
      }

      .cls-39 {
        fill: url(#radial-gradient-28);
      }

      .cls-40 {
        fill: url(#radial-gradient-29);
      }

      .cls-41 {
        fill: url(#radial-gradient-30);
      }

      .cls-42 {
        fill: url(#radial-gradient-31);
      }

      .cls-43 {
        fill: url(#radial-gradient-32);
      }

      .cls-44 {
        fill: url(#radial-gradient-33);
      }

      .cls-45 {
        fill: url(#radial-gradient-34);
      }

      .cls-46 {
        fill: url(#radial-gradient-35);
      }

      .cls-47 {
        fill: url(#radial-gradient-36);
      }

      .cls-48 {
        fill: url(#radial-gradient-37);
      }

      .cls-49 {
        fill: url(#radial-gradient-38);
      }

      .cls-50 {
        fill: url(#radial-gradient-39);
      }

      .cls-51 {
        fill: url(#radial-gradient-40);
      }

      .cls-52 {
        fill: url(#radial-gradient-41);
      }

      .cls-53 {
        fill: url(#radial-gradient-42);
      }

      .cls-54 {
        fill: url(#radial-gradient-43);
      }

      .cls-55 {
        fill: url(#radial-gradient-44);
      }

      .cls-56 {
        fill: url(#radial-gradient-45);
      }

      .cls-57 {
        fill: url(#radial-gradient-46);
      }

      .cls-58 {
        fill: url(#radial-gradient-47);
      }

      .cls-59 {
        fill: url(#radial-gradient-48);
      }

      .cls-60 {
        fill: url(#radial-gradient-49);
      }

      .cls-61 {
        fill: url(#radial-gradient-50);
      }

      .cls-62 {
        fill: url(#radial-gradient-51);
      }

      .cls-63 {
        fill: url(#radial-gradient-52);
      }

      .cls-64 {
        fill: url(#radial-gradient-53);
      }

      .cls-65 {
        fill: url(#radial-gradient-54);
      }

      .cls-66 {
        fill: url(#radial-gradient-55);
      }

      .cls-67 {
        fill: url(#radial-gradient-56);
      }

      .cls-68 {
        fill: url(#radial-gradient-57);
      }

      .cls-69 {
        fill: url(#radial-gradient-58);
      }

      .cls-70 {
        fill: url(#radial-gradient-59);
      }

      .cls-71 {
        fill: url(#radial-gradient-60);
      }

      .cls-72 {
        fill: url(#radial-gradient-61);
      }

      .cls-73 {
        fill: url(#radial-gradient-62);
      }

      .cls-74 {
        fill: url(#radial-gradient-63);
      }

      .cls-75 {
        fill: url(#radial-gradient-64);
      }

      .cls-76 {
        fill: url(#radial-gradient-65);
      }

      .cls-77 {
        fill: url(#radial-gradient-66);
      }

      .cls-78 {
        fill: url(#radial-gradient-67);
      }

      .cls-79 {
        fill: url(#radial-gradient-68);
      }

      .cls-80 {
        fill: url(#radial-gradient-69);
      }

      .cls-81 {
        fill: url(#radial-gradient-70);
      }

      .cls-82 {
        fill: url(#radial-gradient-71);
      }

      .cls-83 {
        fill: url(#radial-gradient-72);
      }

      .cls-84 {
        fill: url(#radial-gradient-73);
      }

      .cls-85 {
        fill: url(#radial-gradient-74);
      }

      .cls-86 {
        fill: url(#radial-gradient-75);
      }

      .cls-87 {
        fill: url(#radial-gradient-76);
      }

      .cls-88 {
        fill: url(#radial-gradient-77);
      }

      .cls-89 {
        fill: url(#radial-gradient-78);
      }

      .cls-90 {
        fill: url(#radial-gradient-79);
      }

      .cls-91 {
        fill: url(#radial-gradient-80);
      }

      .cls-92 {
        fill: url(#radial-gradient-81);
      }

      .cls-93 {
        fill: url(#radial-gradient-82);
      }

      .cls-94 {
        fill: url(#radial-gradient-83);
      }

      .cls-95 {
        fill: url(#radial-gradient-84);
      }

      .cls-96 {
        fill: url(#radial-gradient-85);
      }

      .cls-97 {
        fill: url(#radial-gradient-86);
      }

      .cls-98 {
        fill: url(#radial-gradient-87);
      }

      .cls-99 {
        fill: url(#radial-gradient-88);
      }

      .cls-100 {
        fill: url(#radial-gradient-89);
      }

      .cls-101 {
        fill: url(#radial-gradient-90);
      }

      .cls-102 {
        fill: url(#radial-gradient-91);
      }

      .cls-103 {
        fill: url(#radial-gradient-92);
      }

      .cls-104 {
        fill: url(#radial-gradient-93);
      }

      .cls-105 {
        fill: url(#radial-gradient-94);
      }

      .cls-106 {
        fill: url(#radial-gradient-95);
      }

      .cls-107 {
        fill: url(#radial-gradient-96);
      }

      .cls-108 {
        fill: url(#radial-gradient-97);
      }

      .cls-109 {
        fill: url(#radial-gradient-98);
      }

      .cls-110 {
        fill: url(#radial-gradient-99);
      }

      .cls-111 {
        fill: url(#radial-gradient-100);
      }

      .cls-112 {
        fill: url(#radial-gradient-101);
      }

      .cls-113 {
        fill: url(#radial-gradient-102);
      }

      .cls-114 {
        fill: url(#radial-gradient-103);
      }

      .cls-115 {
        fill: url(#radial-gradient-104);
      }

      .cls-116 {
        fill: #bb2025;
      }

      .cls-117 {
        font-size: 22.03px;
      }

      .cls-117, .cls-118, .cls-122, .cls-124, .cls-126, .cls-132, .cls-137, .cls-138, .cls-139, .cls-143, .cls-149, .cls-150, .cls-159, .cls-162, .cls-166, .cls-177, .cls-182, .cls-183, .cls-184, .cls-186, .cls-197, .cls-201, .cls-216, .cls-219, .cls-227, .cls-228, .cls-236 {
        fill: #010101;
      }

      .cls-117, .cls-118, .cls-122, .cls-124, .cls-126, .cls-132, .cls-137, .cls-138, .cls-139, .cls-143, .cls-149, .cls-150, .cls-159, .cls-162, .cls-166, .cls-177, .cls-182, .cls-183, .cls-184, .cls-186, .cls-197, .cls-201, .cls-216, .cls-219, .cls-227, .cls-228, .cls-236, .cls-241, .cls-242 {
        font-family: ArialRoundedMTBold;
      }

      .cls-118 {
        font-size: 14.69px;
      }

      .cls-119 {
        letter-spacing: -0.01em;
      }

      .cls-120 {
        letter-spacing: -0.04em;
      }

      .cls-121 {
        letter-spacing: 0em;
      }

      .cls-122 {
        font-size: 17.13px;
      }

      .cls-123 {
        letter-spacing: 0em;
      }

      .cls-124 {
        font-size: 17.13px;
      }

      .cls-125 {
        letter-spacing: 0em;
      }

      .cls-126 {
        font-size: 14.69px;
      }

      .cls-127 {
        letter-spacing: 0em;
      }

      .cls-128 {
        letter-spacing: -0.03em;
      }

      .cls-129 {
        letter-spacing: -0.01em;
      }

      .cls-130 {
        letter-spacing: -0.08em;
      }

      .cls-131 {
        letter-spacing: -0.02em;
      }

      .cls-132 {
        font-size: 12.24px;
      }

      .cls-133 {
        letter-spacing: 0.01em;
      }

      .cls-134 {
        letter-spacing: -0.03em;
      }

      .cls-135 {
        letter-spacing: -0.01em;
      }

      .cls-136 {
        letter-spacing: -0.02em;
      }

      .cls-137 {
        font-size: 14.69px;
      }

      .cls-138 {
        font-size: 14.69px;
      }

      .cls-139 {
        font-size: 12.24px;
      }

      .cls-140 {
        letter-spacing: 0.02em;
      }

      .cls-141 {
        letter-spacing: -0.06em;
      }

      .cls-142 {
        letter-spacing: 0em;
      }

      .cls-143 {
        font-size: 14.69px;
      }

      .cls-144 {
        letter-spacing: -0.08em;
      }

      .cls-145 {
        letter-spacing: 0em;
      }

      .cls-146 {
        letter-spacing: -0.04em;
      }

      .cls-147 {
        letter-spacing: -0.03em;
      }

      .cls-148 {
        letter-spacing: -0.01em;
      }

      .cls-149 {
        font-size: 14.69px;
      }

      .cls-150 {
        font-size: 12.24px;
      }

      .cls-151 {
        letter-spacing: 0em;
      }

      .cls-152 {
        letter-spacing: 0em;
      }

      .cls-153 {
        letter-spacing: -0.08em;
      }

      .cls-154 {
        letter-spacing: -0.02em;
      }

      .cls-155 {
        letter-spacing: 0.02em;
      }

      .cls-156 {
        letter-spacing: 0.01em;
      }

      .cls-157 {
        letter-spacing: 0.01em;
      }

      .cls-158 {
        letter-spacing: 0em;
      }

      .cls-159 {
        font-size: 12.24px;
      }

      .cls-160 {
        letter-spacing: -0.01em;
      }

      .cls-161 {
        letter-spacing: -0.04em;
      }

      .cls-162 {
        font-size: 12.24px;
      }

      .cls-163 {
        letter-spacing: -0.01em;
      }

      .cls-164 {
        letter-spacing: -0.04em;
      }

      .cls-165 {
        letter-spacing: -0.05em;
      }

      .cls-166 {
        font-size: 14.69px;
      }

      .cls-167 {
        letter-spacing: 0.01em;
      }

      .cls-168 {
        letter-spacing: 0.03em;
      }

      .cls-169 {
        letter-spacing: -0.01em;
      }

      .cls-170 {
        letter-spacing: -0.05em;
      }

      .cls-171 {
        letter-spacing: -0.02em;
      }

      .cls-172 {
        letter-spacing: -0.05em;
      }

      .cls-173 {
        letter-spacing: -0.03em;
      }

      .cls-174 {
        letter-spacing: 0.02em;
      }

      .cls-175 {
        letter-spacing: -0.04em;
      }

      .cls-176 {
        letter-spacing: 0.06em;
      }

      .cls-177 {
        font-size: 14.69px;
      }

      .cls-178 {
        letter-spacing: -0.03em;
      }

      .cls-179 {
        letter-spacing: 0.02em;
      }

      .cls-180 {
        letter-spacing: -0.04em;
      }

      .cls-181 {
        letter-spacing: 0.06em;
      }

      .cls-182 {
        font-size: 14.69px;
      }

      .cls-183 {
        font-size: 14.69px;
      }

      .cls-184 {
        font-size: 17.13px;
      }

      .cls-185 {
        letter-spacing: 0em;
      }

      .cls-186 {
        font-size: 14.69px;
      }

      .cls-187 {
        letter-spacing: 0em;
      }

      .cls-188 {
        letter-spacing: -0.02em;
      }

      .cls-189 {
        letter-spacing: -0.01em;
      }

      .cls-190 {
        letter-spacing: -0.04em;
      }

      .cls-191 {
        letter-spacing: -0.03em;
      }

      .cls-192 {
        letter-spacing: 0.02em;
      }

      .cls-193 {
        letter-spacing: -0.04em;
      }

      .cls-194 {
        letter-spacing: 0.02em;
      }

      .cls-195 {
        letter-spacing: 0.02em;
      }

      .cls-196 {
        letter-spacing: 0em;
      }

      .cls-197 {
        font-size: 17.13px;
      }

      .cls-198 {
        letter-spacing: -0.07em;
      }

      .cls-199 {
        letter-spacing: -0.08em;
      }

      .cls-200 {
        letter-spacing: 0.02em;
      }

      .cls-201 {
        font-size: 17.13px;
      }

      .cls-202 {
        letter-spacing: -0.08em;
      }

      .cls-203 {
        letter-spacing: -0.08em;
      }

      .cls-204 {
        letter-spacing: 0.02em;
      }

      .cls-205 {
        letter-spacing: 0em;
      }

      .cls-206 {
        letter-spacing: 0em;
      }

      .cls-207 {
        letter-spacing: -0.04em;
      }

      .cls-208 {
        letter-spacing: -0.03em;
      }

      .cls-209 {
        letter-spacing: -0.03em;
      }

      .cls-210 {
        letter-spacing: 0em;
      }

      .cls-211 {
        letter-spacing: -0.01em;
      }

      .cls-212 {
        letter-spacing: -0.01em;
      }

      .cls-213 {
        letter-spacing: -0.04em;
      }

      .cls-214 {
        letter-spacing: 0.02em;
      }

      .cls-215 {
        letter-spacing: -0.02em;
      }

      .cls-216 {
        font-size: 14.69px;
      }

      .cls-217 {
        letter-spacing: -0.01em;
      }

      .cls-218 {
        letter-spacing: 0em;
      }

      .cls-219 {
        font-size: 22.03px;
      }

      .cls-220 {
        letter-spacing: 0em;
      }

      .cls-221 {
        letter-spacing: 0em;
      }

      .cls-222 {
        letter-spacing: -0.08em;
      }

      .cls-223 {
        letter-spacing: 0.02em;
      }

      .cls-224 {
        letter-spacing: -0.04em;
      }

      .cls-225 {
        letter-spacing: 0.02em;
      }

      .cls-226 {
        letter-spacing: 0.02em;
      }

      .cls-227 {
        font-size: 14.69px;
      }

      .cls-228 {
        font-size: 14.69px;
      }

      .cls-229 {
        letter-spacing: -0.01em;
      }

      .cls-230 {
        letter-spacing: 0em;
      }

      .cls-231 {
        letter-spacing: -0.02em;
      }

      .cls-232 {
        letter-spacing: -0.02em;
      }

      .cls-233 {
        letter-spacing: -0.02em;
      }

      .cls-234 {
        letter-spacing: 0.04em;
      }

      .cls-235 {
        letter-spacing: 0em;
      }

      .cls-236 {
        font-size: 14.69px;
      }

      .cls-237 {
        letter-spacing: 0.02em;
      }

      .cls-238 {
        letter-spacing: -0.01em;
      }

      .cls-239 {
        letter-spacing: -0.01em;
      }

      .cls-240 {
        letter-spacing: -0.04em;
      }

      .cls-241 {
        font-size: 30.6px;
      }

      .cls-242 {
        font-size: 24.48px;
      }
    </style>
    <radialGradient id="radial-gradient" cx="369.2" cy="1818.1" r="286.52" gradientUnits="userSpaceOnUse">
      <stop offset="0.16" stop-color="#fff"/>
      <stop offset="1" stop-color="#9ca09e"/>
    </radialGradient>
    <radialGradient id="radial-gradient-2" cx="820.39" cy="1439.32" r="219.39" xlink:href="#radial-gradient"/>
    <radialGradient id="radial-gradient-3" cx="706.47" cy="1395.6" r="68.05" xlink:href="#radial-gradient"/>
    <radialGradient id="radial-gradient-4" cx="576.78" cy="778.61" r="170.58" xlink:href="#radial-gradient"/>
    <radialGradient id="radial-gradient-5" cx="1085.15" cy="1173.55" r="147.97" xlink:href="#radial-gradient"/>
    <radialGradient id="radial-gradient-6" cx="607.87" cy="848.5" r="5.93" xlink:href="#radial-gradient"/>
    <radialGradient id="radial-gradient-7" cx="123.16" cy="1554.02" r="67.5" xlink:href="#radial-gradient"/>
    <radialGradient id="radial-gradient-8" cx="141.8" cy="1423.85" r="73.66" xlink:href="#radial-gradient"/>
    <radialGradient id="radial-gradient-9" cx="126.02" cy="1319.07" r="67.11" xlink:href="#radial-gradient"/>
    <radialGradient id="radial-gradient-10" cx="143.25" cy="1173.09" r="65.29" xlink:href="#radial-gradient"/>
    <radialGradient id="radial-gradient-11" cx="217.58" cy="1252.88" r="62.62" xlink:href="#radial-gradient"/>
    <radialGradient id="radial-gradient-12" cx="214.15" cy="1222.78" r="13.22" xlink:href="#radial-gradient"/>
    <radialGradient id="radial-gradient-13" cx="230.84" cy="1341.4" r="63.28" xlink:href="#radial-gradient"/>
    <radialGradient id="radial-gradient-14" cx="305.16" cy="1277.14" r="96.41" xlink:href="#radial-gradient"/>
    <radialGradient id="radial-gradient-15" cx="185.09" cy="1577.49" r="73.23" xlink:href="#radial-gradient"/>
    <radialGradient id="radial-gradient-16" cx="325.06" cy="1495.91" r="135.05" xlink:href="#radial-gradient"/>
    <radialGradient id="radial-gradient-17" cx="314.87" cy="1534.32" r="52.22" xlink:href="#radial-gradient"/>
    <radialGradient id="radial-gradient-18" cx="448.92" cy="1484.44" r="62.76" xlink:href="#radial-gradient"/>
    <radialGradient id="radial-gradient-19" cx="459.08" cy="1358.41" r="43.87" xlink:href="#radial-gradient"/>
    <radialGradient id="radial-gradient-20" cx="400.4" cy="1317.1" r="34.48" xlink:href="#radial-gradient"/>
    <radialGradient id="radial-gradient-21" cx="351.76" cy="1230.53" r="49.71" xlink:href="#radial-gradient"/>
    <radialGradient id="radial-gradient-22" cx="470.42" cy="1265.29" r="53.6" xlink:href="#radial-gradient"/>
    <radialGradient id="radial-gradient-23" cx="420.93" cy="1167.12" r="69.08" xlink:href="#radial-gradient"/>
    <radialGradient id="radial-gradient-24" cx="512.54" cy="1312.12" r="18.86" xlink:href="#radial-gradient"/>
    <radialGradient id="radial-gradient-25" cx="534.77" cy="1372.33" r="22.95" xlink:href="#radial-gradient"/>
    <radialGradient id="radial-gradient-26" cx="569.23" cy="1483.33" r="65.16" xlink:href="#radial-gradient"/>
    <radialGradient id="radial-gradient-27" cx="623.81" cy="1382.65" r="44.93" xlink:href="#radial-gradient"/>
    <radialGradient id="radial-gradient-28" cx="661.97" cy="1492.01" r="54.97" xlink:href="#radial-gradient"/>
    <radialGradient id="radial-gradient-29" cx="586.06" cy="1345.5" r="32.29" xlink:href="#radial-gradient"/>
    <radialGradient id="radial-gradient-30" cx="540.15" cy="1204.45" r="40.8" xlink:href="#radial-gradient"/>
    <radialGradient id="radial-gradient-31" cx="628.67" cy="1140.11" r="31.08" xlink:href="#radial-gradient"/>
    <radialGradient id="radial-gradient-32" cx="655.54" cy="1107.82" r="31.83" xlink:href="#radial-gradient"/>
    <radialGradient id="radial-gradient-33" cx="722.34" cy="1132.41" r="59.85" xlink:href="#radial-gradient"/>
    <radialGradient id="radial-gradient-34" cx="621.58" cy="1256.5" r="79.01" xlink:href="#radial-gradient"/>
    <radialGradient id="radial-gradient-35" cx="573.88" cy="1076.99" r="62.26" xlink:href="#radial-gradient"/>
    <radialGradient id="radial-gradient-36" cx="485.36" cy="1112.07" r="52.88" xlink:href="#radial-gradient"/>
    <radialGradient id="radial-gradient-37" cx="100.48" cy="920.39" r="34.25" xlink:href="#radial-gradient"/>
    <radialGradient id="radial-gradient-38" cx="123.87" cy="1026.86" r="68.24" xlink:href="#radial-gradient"/>
    <radialGradient id="radial-gradient-39" cx="179.96" cy="1096.99" r="72.45" xlink:href="#radial-gradient"/>
    <radialGradient id="radial-gradient-40" cx="280.75" cy="1079.4" r="91.71" xlink:href="#radial-gradient"/>
    <radialGradient id="radial-gradient-41" cx="353.69" cy="1048.07" r="14.06" xlink:href="#radial-gradient"/>
    <radialGradient id="radial-gradient-42" cx="389.82" cy="1029.46" r="90.84" xlink:href="#radial-gradient"/>
    <radialGradient id="radial-gradient-43" cx="186.3" cy="913.64" r="76.82" xlink:href="#radial-gradient"/>
    <radialGradient id="radial-gradient-44" cx="266.25" cy="866.73" r="73.14" xlink:href="#radial-gradient"/>
    <radialGradient id="radial-gradient-45" cx="366.75" cy="822.93" r="111.13" xlink:href="#radial-gradient"/>
    <radialGradient id="radial-gradient-46" cx="587.48" cy="984.41" r="64.51" xlink:href="#radial-gradient"/>
    <radialGradient id="radial-gradient-47" cx="743.12" cy="1039.81" r="73.73" xlink:href="#radial-gradient"/>
    <radialGradient id="radial-gradient-48" cx="709.04" cy="947.93" r="26.5" xlink:href="#radial-gradient"/>
    <radialGradient id="radial-gradient-49" cx="628.91" cy="919.93" r="35.15" xlink:href="#radial-gradient"/>
    <radialGradient id="radial-gradient-50" cx="668.15" cy="874.69" r="17.89" xlink:href="#radial-gradient"/>
    <radialGradient id="radial-gradient-51" cx="675.8" cy="824.61" r="25.09" xlink:href="#radial-gradient"/>
    <radialGradient id="radial-gradient-52" cx="150.23" cy="772.14" r="29.26" xlink:href="#radial-gradient"/>
    <radialGradient id="radial-gradient-53" cx="194.7" cy="609.92" r="169.95" xlink:href="#radial-gradient"/>
    <radialGradient id="radial-gradient-54" cx="211.54" cy="697.07" r="42.4" xlink:href="#radial-gradient"/>
    <radialGradient id="radial-gradient-55" cx="350.34" cy="597.93" r="21.47" xlink:href="#radial-gradient"/>
    <radialGradient id="radial-gradient-56" cx="363.34" cy="617.84" r="15.06" xlink:href="#radial-gradient"/>
    <radialGradient id="radial-gradient-57" cx="411.76" cy="617.81" r="43.35" xlink:href="#radial-gradient"/>
    <radialGradient id="radial-gradient-58" cx="680.91" cy="566.88" r="70.34" xlink:href="#radial-gradient"/>
    <radialGradient id="radial-gradient-59" cx="866.24" cy="1112.45" r="31.28" xlink:href="#radial-gradient"/>
    <radialGradient id="radial-gradient-60" cx="803.99" cy="1146.4" r="40.96" xlink:href="#radial-gradient"/>
    <radialGradient id="radial-gradient-61" cx="942.92" cy="1055.71" r="37.56" xlink:href="#radial-gradient"/>
    <radialGradient id="radial-gradient-62" cx="1072.35" cy="1018.76" r="89.44" xlink:href="#radial-gradient"/>
    <radialGradient id="radial-gradient-63" cx="1237.01" cy="1016.07" r="68.57" xlink:href="#radial-gradient"/>
    <radialGradient id="radial-gradient-64" cx="1217.18" cy="882.18" r="71.37" xlink:href="#radial-gradient"/>
    <radialGradient id="radial-gradient-65" cx="1121.91" cy="874.13" r="56.06" xlink:href="#radial-gradient"/>
    <radialGradient id="radial-gradient-66" cx="1052.26" cy="832" r="56.9" xlink:href="#radial-gradient"/>
    <radialGradient id="radial-gradient-67" cx="1010.23" cy="818.24" r="21.98" xlink:href="#radial-gradient"/>
    <radialGradient id="radial-gradient-68" cx="1028.29" cy="863.73" r="15.67" xlink:href="#radial-gradient"/>
    <radialGradient id="radial-gradient-69" cx="1052.76" cy="922.58" r="36.05" xlink:href="#radial-gradient"/>
    <radialGradient id="radial-gradient-70" cx="967.4" cy="851.39" r="35.23" xlink:href="#radial-gradient"/>
    <radialGradient id="radial-gradient-71" cx="881.7" cy="934.23" r="54.88" xlink:href="#radial-gradient"/>
    <radialGradient id="radial-gradient-72" cx="914.88" cy="1010.73" r="67.43" xlink:href="#radial-gradient"/>
    <radialGradient id="radial-gradient-73" cx="780.14" cy="983.17" r="29.08" xlink:href="#radial-gradient"/>
    <radialGradient id="radial-gradient-74" cx="756.5" cy="857.25" r="75.2" xlink:href="#radial-gradient"/>
    <radialGradient id="radial-gradient-75" cx="901.16" cy="822.58" r="62.09" xlink:href="#radial-gradient"/>
    <radialGradient id="radial-gradient-76" cx="1157.75" cy="714.15" r="62.61" xlink:href="#radial-gradient"/>
    <radialGradient id="radial-gradient-77" cx="812.68" cy="695.29" r="65.68" xlink:href="#radial-gradient"/>
    <radialGradient id="radial-gradient-78" cx="836.24" cy="557.09" r="30.16" xlink:href="#radial-gradient"/>
    <radialGradient id="radial-gradient-79" cx="504.08" cy="420.83" r="171.16" xlink:href="#radial-gradient"/>
    <radialGradient id="radial-gradient-80" cx="759.76" cy="449.4" r="104.68" xlink:href="#radial-gradient"/>
    <radialGradient id="radial-gradient-81" cx="748.73" cy="323.84" r="25.86" xlink:href="#radial-gradient"/>
    <radialGradient id="radial-gradient-82" cx="635.95" cy="262.18" r="63.35" xlink:href="#radial-gradient"/>
    <radialGradient id="radial-gradient-83" cx="379.81" cy="372.73" r="23.69" xlink:href="#radial-gradient"/>
    <radialGradient id="radial-gradient-84" cx="241.11" cy="386.88" r="66.49" xlink:href="#radial-gradient"/>
    <radialGradient id="radial-gradient-85" cx="358.67" cy="354.12" r="47.7" xlink:href="#radial-gradient"/>
    <radialGradient id="radial-gradient-86" cx="447.93" cy="172.71" r="121.73" xlink:href="#radial-gradient"/>
    <radialGradient id="radial-gradient-87" cx="251.21" cy="105.06" r="38.36" xlink:href="#radial-gradient"/>
    <radialGradient id="radial-gradient-88" cx="124.73" cy="61.25" r="22.28" xlink:href="#radial-gradient"/>
    <radialGradient id="radial-gradient-89" cx="220.92" cy="240.06" r="147.71" xlink:href="#radial-gradient"/>
    <radialGradient id="radial-gradient-90" cx="611.54" cy="65.23" r="28.16" xlink:href="#radial-gradient"/>
    <radialGradient id="radial-gradient-91" cx="662.33" cy="73.49" r="27.99" xlink:href="#radial-gradient"/>
    <radialGradient id="radial-gradient-92" cx="650.2" cy="176.66" r="8.22" xlink:href="#radial-gradient"/>
    <radialGradient id="radial-gradient-93" cx="728.54" cy="157.94" r="51.98" xlink:href="#radial-gradient"/>
    <radialGradient id="radial-gradient-94" cx="682.84" cy="354.07" r="5.81" xlink:href="#radial-gradient"/>
    <radialGradient id="radial-gradient-95" cx="762.8" cy="249.48" r="79.46" xlink:href="#radial-gradient"/>
    <radialGradient id="radial-gradient-96" cx="891.93" cy="309.68" r="41.54" xlink:href="#radial-gradient"/>
    <radialGradient id="radial-gradient-97" cx="1037.88" cy="596.17" r="68.84" xlink:href="#radial-gradient"/>
    <radialGradient id="radial-gradient-98" cx="977.3" cy="729.56" r="84.77" xlink:href="#radial-gradient"/>
    <radialGradient id="radial-gradient-99" cx="962.65" cy="548.75" r="9.5" xlink:href="#radial-gradient"/>
    <radialGradient id="radial-gradient-100" cx="984.98" cy="590.8" r="52.46" xlink:href="#radial-gradient"/>
    <radialGradient id="radial-gradient-101" cx="948.07" cy="495.18" r="34.55" xlink:href="#radial-gradient"/>
    <radialGradient id="radial-gradient-102" cx="934.04" cy="382.37" r="2.91" xlink:href="#radial-gradient"/>
    <radialGradient id="radial-gradient-103" cx="944.56" cy="432.63" r="19.92" xlink:href="#radial-gradient"/>
    <radialGradient id="radial-gradient-104" cx="932.62" cy="360.5" r="40.8" xlink:href="#radial-gradient"/>
  </defs>
  <title>kort</title>
  <g id="Layer_1" data-name="Layer 1">
    <path class="cls-1" d="M211.91,1457.8l-34.77,25-19.38-21.4,59-34.41,20.34-15.24L273.4,1397l27.3-8.26,26.66-68.33-43.59-102.55-17.43-54.35-88.56-152.83,2.44-2.56-45.56-76.54-32.8-46,17.5-11.08,40.18,56.16,44.76,79.91,0,6L302.42,1184l20.36-10.78,13.81-17.59,6.91-8.19,24.72,11.75L416.79,1221l54.81-30.39,24.14-22.93,70-42.27,44.78-29.13,13.69-6.17,9.6,16.7,28.25-.11,84.84,23.77,25.3-.09,54.13-36.5,14.78,28.1-106.19,57.9,25,50s-35.27.53-44.1,15.92S702,1230.17,702,1230.17l-15.19-27.64L545.27,1317.47l8.09,20.78,19.42,38.48L556,1388.42l-29.64,10.51-19.27,1.29-30.49-55.37-62.65,22.05-18.62,12.3L361.7,1391l-72.29,33Z" transform="translate(29.26 -41.97)"/>
    <polygon class="cls-1" points="340.11 408.31 398 405.48 431.09 502.13 518.01 525.79 520.59 549.71 464.18 568.83 317.5 654.2 277.92 555.07 329.95 516 340.11 408.31"/>
    <path class="cls-2" d="M941.42,1247.05a21.78,21.78,0,0,1,5.49,5l.21.23.34.16.47.27a6.19,6.19,0,0,1,1.67,1.18l.95,1.23a.83.83,0,0,1,.07.13,6.22,6.22,0,0,1,2.76,2L991,1239l-85.45-83.71-8.58-19.3-19.59-45.08-9.79-15.57-22.23-61.82-4.19-17.75L834.91,917l6.22-30.8,38.27-102.6,9.37-19.18,71-108.11-82.61-18.56-31.82,18.56L809.25,757l-.88,26.57L776.16,874.5,790.74,917v32l7.45,62.68,6.94,25.1,17.26,48.4,16,41.53,29.15,44.91,16.05,18,51.95,57.35A6.2,6.2,0,0,1,941.42,1247.05Z" transform="translate(29.26 -41.97)"/>
    <polygon class="cls-3" points="1306.01 1056.59 1294.08 1033.32 1215.44 930.5 1208.71 911.61 1175.66 801.37 1166.01 781.49 1103.05 663.68 1085.71 631.25 1082.95 627.58 1061.87 602.74 1010.52 568.83 991.92 569.6 966.53 561.95 959.64 559.96 899.67 543.33 843.37 539.12 805.99 539.12 707.93 529.84 616.54 543.33 597.98 543.33 510.26 549.71 464.18 561.95 298.46 667.76 267.32 695.1 254.09 711.01 208.16 741.61 185.31 757.52 125.75 797.09 93.93 818.92 93.93 864.61 99.64 857.06 118 852.27 131.12 843.61 148.63 832.53 207.34 788.93 233.58 771.7 272.74 744.87 290.25 733.34 387.67 667.36 424.38 645.07 720.37 592.7 791.15 583.31 812.77 585.96 906.4 595.76 967.37 609.45 1097.22 722.85 1109.34 741.61 1129.16 788.11 1142.41 797.09 1147.52 815.45 1175.66 914.59 1179.13 934.58 1221.97 1019.21 1230.67 1030.82 1298.06 1081.61 1306.01 1056.59"/>
    <rect class="cls-1" x="1042.31" y="145.43" width="47.27" height="25.7"/>
    <rect class="cls-2" x="1042.31" y="192.65" width="47.27" height="25.7"/>
    <rect class="cls-3" x="1042.6" y="242.73" width="47.27" height="25.7"/>
    <path class="cls-4" d="M73.07,2001.74c67.69-40,112.43-22.2,112.43-22.2l41,24.65,27.74,26.11,367.42-237c10-11.4,21-14.32,21-14.32l41.56-27.32,2.86-22.27a199.72,199.72,0,0,1,10.74-42.25l131.69-50,153.76-291.86c10.6-4.49,28.77-25.74,28.77-25.74l12-41.57,65.28-64.06c-4.08-9,18.77-18,18.77-18,28.15-35.08,91.38-43.65,91.38-43.65l44.47-1.63,22.64-27.17,8-25,14.07-163.22v-21l-34.47-50.39-54.67-51.4-15.63-10.81-97.3-113.06c18.83-33.71,11.14-54,11.14-54L990,520.8l-10.1-18L976.56,478l25.49-2.85,2.48,11,26.39-19.86L999.61,452l1.63,12.06-25.91,4.49v-9l-7-17.45-10.7-17V310.52l-31.83-17.37L871.91,263l-19.76-9.47L779.4,200.21,793,165.87c-20.2-6.12-50.59-36.11-50.59-36.11H676.49c-2-8-16.32-5-16.32-5l-17-5.4L646.37,42H70.3V2000.36Z" transform="translate(29.26 -41.97)"/>
    <rect class="cls-4" x="1040.14" y="145.38" width="47.27" height="25.7"/>
    <rect class="cls-4" x="1040.44" y="192.61" width="47.27" height="25.7"/>
    <rect class="cls-4" x="1040.44" y="243" width="47.27" height="25.7"/>
  </g>
  <g id="Layer_2" data-name="Layer 2">
    <path class="cls-5" d="M638.38,1779a5.41,5.41,0,0,1,4.18-.72l42.16-27.13s-30.18-53.14-43.11-74.51-5-18.34-5-18.34l-18-74.59c-26.91,3.76-113.28-19.8-113.28-19.8l-142.56,9.69-153.9,88.06-67.24,21.05c-20.86,156.12-84.19,243.86-84.19,243.86l-3.78,58.78,19.54,15.51s104.61-73.49,181.65,26.9L625.36,1789.3A75.23,75.23,0,0,1,638.38,1779Z" transform="translate(29.26 -41.97)"/>
    <path class="cls-6" d="M830,1636.15s-124.06,46.34-138.11,53.12-26.44-35.4-26.44-35.4l-11-7.3-16.77-68.48s165.58-73.41,98.91-236.57c0,0-4.36-19.57-.14-37.94s-8-22.61-8-22.61.52-25.1,28.67-23.36l124.6-69,121.59,119.52" transform="translate(29.26 -41.97)"/>
    <path class="cls-7" d="M716.47,1303.34l-33.27,21.24s4.08,31.19-1.4,37.94c0,0-4.76,38.27-1.65,51.41s5,22.63,5,22.63l5,23.54,22.75,27.76s26.53-25.18,19.94-71.67S716,1342.51,716,1342.51Z" transform="translate(29.26 -41.97)"/>
    <path class="cls-8" d="M497.83,884.62s-.53,46.09,2.39,49.76l62.89-4.49-1.63-16.33s-4.62-9,6.87-11.41,63.15-11.42,63.15-11.42l3-40.39s-6.86-.41-7.71-12.65,0-41.21,0-41.21,1.59-8.56,15.06-10.6,42.43-3.27,69.35,7.34l21.62-62.42S756.08,652.06,761,623.5c0,0-148.09-2.44-157.88,2s-13.06,4.9-13.06,4.9L473,642.68s-29,1.63-80.37,42.43l102,181.54,79.82-5.71s10.75.82,9.93,8.16-7.54,10.2-7.54,10.2Z" transform="translate(29.26 -41.97)"/>
    <path class="cls-9" d="M1024.5,1277.46,960,1211.6s-17.83-25-39.9-35.35l-16.6-22,60.17-29s53.11,50,55.63,69.57c0,0,20.84,8.49,18.32-12.31s-63.92-76.27-63.92-76.27l-15.43-36.66,164,6.15s75.94,15,77.09-4l67.39,50.78-22.64,27.09-45.29,1.72s-69.15,11.85-90.57,43.56c0,0-22.64,9.15-19,18Z" transform="translate(29.26 -41.97)"/>
    <path class="cls-10" d="M372.92,1954.83s159.87-102.87,148-174.48l121.83-95.17c-3.48-11.83-9.89-34.09-14.23-49.17l-18.56.06-75-13.81-46-19.52-45.43,4.84L401,1603.06l-39.18-13.73L297.41,1630l-44.78,27.55-12.9,58.94,50.16,91.88,16.61,32.42-28.65,52.33-74.18,49.22-18.11,26.17,1.26,11.42,40.12,23.52s23.75,25.42,27.83,24.89S372.92,1954.83,372.92,1954.83Z" transform="translate(29.26 -41.97)"/>
    <path class="cls-11" d="M419,1753.94l-6.39,9.82s-7.86,27.26-20.13,17.51-8.62-15.27-8.62-15.27-5.53-4.87-9.49.34-3.62,13.78-3.62,13.78l5.53,6.72,1.55,6.11-1.51,3.37s5.24,10.69-1.19,11.63-12.82,6.58-12.82,6.58-5.48,8.48-5.47,12.46,4,16.51,4,16.51l3.85,1.82,6.25-1.86s9.77-5.24,12.22-3.1,11.34,4.85,11.34,4.85l1.55,4.28,2.45,1.52h3.37s8.54-6.15,15.57-9.24c0,0,12.4-40.12,6.39-52.34S413,1778.75,419,1753.94Z" transform="translate(29.26 -41.97)"/>
    <polygon class="cls-11" points="457.68 1687.15 454.29 1687.16 448.25 1701.87 452.54 1701.86 457.68 1687.15"/>
    <path class="cls-11" d="M468.52,1648.82h-3.67l-2.73,6.24s-1.8,10-16.2,5.15-19.57,3.35-19.57,3.35-17.1,10.68-19.58.07-5.26-14.59-5.26-14.59-6.76-8.23-12.54,1.58l-13.44,6.55s-14,18.33-10.92,26,3.09,9.17,3.09,9.17,0,5.51,4.31,5.18,14.37-2.78,17.13,0a109.17,109.17,0,0,0,9.51,7.54s3.69,4.22,11.94,0,15.88-7.34,15.88-7.34,9.48-2.49,10.42,3.63-5.76,14.6-5.76,14.6l-2.13,5.93h3.68s5.77-10.73,11.87-15.34a30.81,30.81,0,0,0,8.84-10.75,121.58,121.58,0,0,0,15.27-9.23c6.1-4.61,18.29-17.37,10.93-23.07S471.63,1663.19,468.52,1648.82Z" transform="translate(29.26 -41.97)"/>
    <path class="cls-11" d="M261.94,1634.86l10.77,17.41s78.27-15,88.33-25.41l10.06-10.44,6.74,0,7-6.45s55.13,15.71,66.74,8.94,12.85-.66,12.85-.66,19.58-.37,24.77-2.84,34.29,6.3,43.81,15,49.39,31.49,98.92,21.83l-5.46-24.8s-27.05,7.17-48.8-.1S521,1600,521,1600s-12-8.83-41.34-6.89-40.06,4.12-40.06,4.12-6.41,5.83-31.22-2.34-40.77-19.13-40.77-19.13l-7,1.55Z" transform="translate(29.26 -41.97)"/>
    <polygon class="cls-11" points="510.25 1583.24 506.58 1583.25 497.76 1600.42 501.13 1600.4 510.25 1583.24"/>
    <path class="cls-10" d="M370.12,1599l-5.19,2.46-5.2-1.2-3.08-3.36-5.51-2.43-4.89,3.54-4.89,1.7s-2.45-.6-2.44.31v3.37h-2.14v4.28l-6.11,1.86-1.21,4.29,1.54,1.88v1.78l.61,2.14,4.29,1.52,1.83-3.68,1.52-1.78a16.34,16.34,0,0,1,1.24,3.61,6.6,6.6,0,0,0,.31,1.83s3.06.6,3.67,0a23.6,23.6,0,0,0,2.13-4c.61-1.22,3.21-1.48,3.21-1.48l2.91,1.46,1.82-3.37,3.68,1.88,2.14-1.9h3.06l.9-3.07,5.82,0,1.52-2.77v-1.52l-1.54-2.75,1.52-2.14Z" transform="translate(29.26 -41.97)"/>
    <path class="cls-10" d="M394.22,1663.68s2.13-5.12,0-5.42-2.75.62-5.2,0-2.76-2.26-4.59,0-1.83.68-4,2.53-3,6.74-3,6.74l0,5.51s.62,3.67,1.54,3.66,1.52-1.53,3.06,0-.91,2.45,1.53,1.53,3.06-1.85,4.13-1.85a19.16,19.16,0,0,1,4.13.29c1.23.3,3.37,1.21,4-.32a7.79,7.79,0,0,1,2.13-2.76Z" transform="translate(29.26 -41.97)"/>
    <path class="cls-10" d="M434.35,1676.17l3-1.54v-2.14l4.91,3.65,5.22,5.18-2.44,4-4.12,3.07-6.58,0-3.95,5.52-4.3-3.35-6.41,3.39s-4.27,4.3-4.88,5.06-4.05,0-4.05,0l-3.61-3.2,0-4.28L405,1686s2.45.16,2.44-2.19a47.73,47.73,0,0,0-.63-6l.91-2.76,3-4.29,4.05,0,4.27-1.85s3.68.29,4,1.52,3.22,3.66,3.22,3.66l2.61,2.13h5.51Z" transform="translate(29.26 -41.97)"/>
    <path class="cls-10" d="M744.37,1372.39H790l3.37-45.29s1.22-33.35,38.86-38.55l-22-45-.61-15L832.19,1217s2.75,21.73,41.92,83.23l25.7-5.85,47.43-28.12s4-4.59,10.4-1.53,55.08,53.86,55.08,53.86-31.52,41.3-46.51,25.09c0,0-3.37,10.09-11.63,14.68s-20.5,16.53-20.5,16.53-9.79,14.07-13.16,26.92-8.87,17.9-8.87,17.9l-5.2,8.72-6.43,15.91s-10.1,11.49-10.4,13.4-1.53,2.82-2.14,4.66-1.23,4.89-1.23,4.89l-8.11,11.94-8.41,12.23s-9.18,20.81-10.1,26.93-1.83,15-1.83,15-10.1,29.38-15.3,29.07-1.53,2.14-1.53,2.14-13.77,28.88-23,23.16l-6.69,5.67,14.95,44-97.61,36.1-39.16,16.83-7.34-4.59-19.28-33.66L659,1649.3l-4.9-2.75-7.65-26.93,32.13-2.14-1.84-5.82s73.74-25.39,78-32.74,19.58-22.33,19.58-22.33l4.59,1.53s18.66,23.86,24.78,10.71S820.87,1541,820.87,1541s-26.62-20.8-30.91-21.42,22.95-41.91,22.95-41.91-11-3.06-7.65-16.83L764,1438.17s1.22-9.79-11.63-10.7C752.33,1427.47,756.61,1416.14,744.37,1372.39Z" transform="translate(29.26 -41.97)"/>
    <path class="cls-11" d="M653.5,1639.2,648,1621.38s54.46-6.66,60.58-8.49,17.75-7.65,17.75-7.65,35.49-15,48.65-17.44a227.74,227.74,0,0,0,23.87-5.82s13.46-3.67,18.66-13.15,15-26.93,15-26.93,8.27-19,9.49-24.78,7.34-31.21,17.14-41.92-12.86-12.85-12.86-12.85l-2.14-1.53s-11.32-10.41-18.36-12.85-9.48-5.51-12.54-9.8a101.45,101.45,0,0,1-6.43-11s7-15.91,8.26-30.6,33.36-79.86,33.36-79.86l19.88-7.34s28.15-11.63,31.52-11.63,19.58-15,38.86-19.58,30,0,30,0l3.36.61,16.83,15.91-18.05,35.49s-12.55,20.81-20.5,26.93-22.65,19.58-22.65,19.58l-26.31,55.69s-13.77,28.76-21.11,38.25-18.36,32.13-21.11,40.39-18.67,50.18-18.67,50.18-30.78,48.65-57.22,40.39a319.47,319.47,0,0,0-62.11,23.56C690.21,1641,653.5,1639.2,653.5,1639.2Z" transform="translate(29.26 -41.97)"/>
    <path class="cls-10" d="M955.5,1302.63l3.67,1.83s1.84,16.52-5.81,29.68-30,28.76-30,28.76-11.32,11.63-16.83,24.79-21.72,48.65-21.72,48.65l-19.89,26-13.77-2.15s-17.83-16.22-25.7-16.52-7-15.6-7-15.6l5.2-25.7s1.23-15.3,4.59-21.42,20.5-41.92,20.5-41.92,12.85-15.91,30.91-10.41c0,0,1.83-6.42,4.89-6.73,0,0,4.29-4,3.06-9.18,0,0,37.33-10.4,40.08-15.6s14.08-1.53,14.08-1.53-1.11,14.69,8.26,14.07S955.5,1302.63,955.5,1302.63Z" transform="translate(29.26 -41.97)"/>
    <path class="cls-10" d="M732.67,1416.86c-4.4-31-10.4-53.45-13.91-64.94H684.41c-.29,5-1.06,9.23-2.72,11.27,0,0-4.76,38.26-1.65,51.41s5,22.62,5,22.62l5,23.55,22.74,27.76S739.27,1463.34,732.67,1416.86Z" transform="translate(29.26 -41.97)"/>
    <path class="cls-12" d="M716.36,1304l-33.28,21.23s4.09,31.2-1.39,38c0,0-4.76,38.26-1.65,51.41s5,22.62,5,22.62l5,23.55,22.74,27.76s26.54-25.19,19.94-71.67-16.78-73.68-16.78-73.68Z" transform="translate(29.26 -41.97)"/>
    <path class="cls-12" d="M829.84,1636.82s-124.06,46.34-138.11,53.12-26.44-35.4-26.44-35.4l-11-7.3-16.77-68.48s165.58-73.42,98.91-236.57c0,0-4.36-19.57-.14-38s-8-22.61-8-22.61.53-25.09,28.68-23.36l124.6-69,121.59,119.51" transform="translate(29.26 -41.97)"/>
    <circle class="cls-13" cx="901.84" cy="1314.71" r="8.36"/>
    <circle class="cls-13" cx="902.36" cy="1314.82" r="16.22"/>
    <polyline class="cls-13" points="859.01 1175.59 840.95 1204.22 894.12 1301.64"/>
    <path class="cls-13" d="M963.76,1269.58s-13.46-4.9-47.73,12.85a555.21,555.21,0,0,1-66.4,28.8l-2,.84" transform="translate(29.26 -41.97)"/>
    <path class="cls-13" d="M834.7,1288.35s-42.29,18.87-42.9,37.22-1.43,47.34-1.43,47.34l-13.87.11s-11.47,30.88-19,54.75" transform="translate(29.26 -41.97)"/>
    <path class="cls-13" d="M764,1438.48l11.24-8.26h48.42l18.36-5.81s11.93-13.47,12.24-28.46,10.38-26.19,10.38-26.19" transform="translate(29.26 -41.97)"/>
    <path class="cls-13" d="M847.16,1311.2s-2.53,1.34-5.38,8.11S817.09,1373,817.09,1373l-16.31,57.2" transform="translate(29.26 -41.97)"/>
    <path class="cls-13" d="M768.52,1395.1s40.94,4.67,44.76-8.71" transform="translate(29.26 -41.97)"/>
    <path class="cls-13" d="M879.72,1331.18s9-7.22,9.6-11.87,27.52-9.34,27.52-9.34l14.08-8s5.71-3.26,8.36,2.45,9.38,13.87,9.38,13.87,5.51,5.71,1.23,12.85S936.22,1350,936.22,1350s-19.58,13-24.68,20.76-11.22,21.67-11.22,21.67-31.62,61.2-43.45,59.16-33.25-21.32-33.25-21.32l18.36-5.81a24.49,24.49,0,0,0-3.71,11.21,45.48,45.48,0,0,1-2.21,11.63s-5.09,6.94-5.3,11.83S833,1475.2,833,1475.2s16.94,70.37-32.22,100.36c0,0-31.21,3.67-33.46,10s8.36,25.09,8.36,25.09" transform="translate(29.26 -41.97)"/>
    <path class="cls-13" d="M660.23,1649.9s64.91-13.13,89.51-27.44c0,0,33.19-23,46.5-7.12s15.6,27.23,15.6,27.23" transform="translate(29.26 -41.97)"/>
    <path class="cls-13" d="M948.5,1410.21c-19-18.24-36.14-40.27-59.18-53.42" transform="translate(29.26 -41.97)"/>
    <path class="cls-10" d="M606.38,627.23l-137,16.93s-31.29,8-37.41,14.08-42.34,26.51-42.34,26.51l97,172.37s4.08,12.65,27.94,8.16l62.58-4.69-13.24-59.16,65.36-11.53Z" transform="translate(29.26 -41.97)"/>
    <line class="cls-14" x1="609.33" y1="856.76" x2="606.42" y2="840.24"/>
    <line class="cls-13" x1="601.37" y1="818.62" x2="551.19" y2="595.25"/>
    <polyline class="cls-13" points="630.54 585.26 652.78 741.31 515.9 762.72"/>
    <path class="cls-13" d="M590.47,629.88l2.24,22L575,702.09s-50.18,16.32-54.87,22.85-21.21,45.49-21.21,45.49L483,815.3" transform="translate(29.26 -41.97)"/>
    <path class="cls-13" d="M393,684.75s93.22,68.75,98.52,180.53" transform="translate(29.26 -41.97)"/>
    <polyline class="cls-13" points="666.04 743.55 666.04 731.31 651.06 729.25"/>
    <line class="cls-13" x1="496.93" y1="781.49" x2="512.23" y2="773.33"/>
    <line class="cls-13" x1="589.23" y1="764.58" x2="513.7" y2="778.22"/>
    <path class="cls-10" d="M945.4,1192.59l75.27,76.62,11.63-24.72s-3.67-20.22,6.73-25.41,64.61-26.49,64.61-26.49l-2.19,7.14,25.7-30.7,67.93-20.24,11.32,2.07,21.42.31-4.28-11,4.28-13.77s-41.31-1.22-64.56,10.71c0,0-1.63-11.63-21.62,0s-77.52,22.34-77.52,22.34,3.67-20.81-35.49-2.14c0,0-4-5.21-8.88-1.53l13.77,22.93s8.26,9.67-.61,16.32-16.83-5.72-16.83-5.72l-13-20.07s-5.36,2.41-3.52,9.47-12.24,4-12.24,4-1.53-9.49-13.16,0-14,10.11-14,10.11S948.77,1186.59,945.4,1192.59Z" transform="translate(29.26 -41.97)"/>
    <path class="cls-15" d="M1105.73,1191.25l-3,7,5.45-2.55s19.12-20.27,33.46-26-8.37,0-8.37,0Z" transform="translate(29.26 -41.97)"/>
    <path class="cls-11" d="M998,1250.61l14.69,15.6s15.91-18.66,15.6-32.43,28.46-27.54,28.46-27.54l59.66-20.8L1129,1175s49.87-21.72,63.34-23,16.21-1.53,16.21-1.53,23-13.46,26.93-17.74,27.23-13.16,27.23-13.16l-15.4-10.4s-57.12,43.45-211.33,83.84c0,0-14.23,7.65-18.44,15.91s-11.24,15.91-10.63,25.09S998,1250.61,998,1250.61Z" transform="translate(29.26 -41.97)"/>
    <path class="cls-13" d="M1036,1182.67s11.42-5.91,42.43-8.46,168.9-63.3,168.9-63.3" transform="translate(29.26 -41.97)"/>
    <path class="cls-13" d="M993.54,1238.65s12.9-37.44,24-43.64" transform="translate(29.26 -41.97)"/>
    <path class="cls-11" d="M159.18,1972.23l27.71,6s19.31-35.56,36.72-44.19,55.9-24.68,55.9-24.68,39.67-32,44.47-57.68-52.33-88.55-52.33-88.55-25.57-47.64-21.65-65.4,16.38-38.3,16.38-38.3l4.27-3.39-13.23-20.45-15.26,9.54s-3.86,33.67-19.39,53.62,48.73,108,48.73,108l24.9,34s0,6.74-2.1,9.8-13.72,16-13.72,16-26.86,18.76-43.35,25.55S200,1914.87,200,1914.87,162.47,1952,159.18,1972.23Z" transform="translate(29.26 -41.97)"/>
    <path class="cls-13" d="M636.61,1656l-47.13-.13-27.87-7.55s-27.58-11.84-43.52-19.74-37.05-7.82-37.05-7.82l-74.63,7.61s-10.4.34-19.58,1.6-22,9.56-22,9.56l-26.59,10.19s-18.34,3.43-26.9,7.44-15.55,13.52-15.55,13.52l-16.48,12s-11.63,0-13.69,23,17.68,66.34,18,67.56,18.1,13.4,39.37,60.44-44.37,84-44.37,84S243.48,1931.24,231,1938s-16.78,12.61-16.78,12.61l-20.09,28.83" transform="translate(29.26 -41.97)"/>
    <path class="cls-13" d="M634.49,1661.11c-31.72,20.44-66,35.12-97.81,59.6-12.24,8.57-26.92,8.57-39.16,18.36-8.57,7.34-13.47,18.36-14.69,30.6-4.9,42.83-14.69,83.22-21.14,124.3" transform="translate(29.26 -41.97)"/>
    <path class="cls-13" d="M456.18,1895.76c13.19-64.9,23-131,35.85-196.42" transform="translate(29.26 -41.97)"/>
    <polyline class="cls-13" points="574.77 1671.75 507.52 1655.12 501.38 1650.09"/>
    <path class="cls-13" d="M410.62,1627.92l22.18,20.83s5.82,2.74,24.16-2.53,31.24,7,31.24,7,5.52,5.68,1.58,15.49-19.49,26.07-19.49,26.07a49.12,49.12,0,0,0-9.69,28.49,61.58,61.58,0,0,1-8,29.43l2,4-28.88,147.89" transform="translate(29.26 -41.97)"/>
    <path class="cls-13" d="M525.66,1632.21s-.81,3.06-4.78,6.13-31.6,15.19-31.6,15.19" transform="translate(29.26 -41.97)"/>
    <path class="cls-13" d="M462.58,1860.91s-13.37,13.29-38.78,9.71S327.22,1852,327.22,1852" transform="translate(29.26 -41.97)"/>
    <path class="cls-13" d="M240.91,2026.71s71.33-35.44,89.93-52.64,26.54-23.35,26.54-23.35,3.65-7,15.57-9.54,18.77-3.43,18.77-3.43,6-2.47,14.23-9.54,25.31-23.65,25.31-23.65l22.8-38.07" transform="translate(29.26 -41.97)"/>
    <path class="cls-13" d="M427.89,1908.83c-3.81-16.77-16.05-29-27.29-42.15" transform="translate(29.26 -41.97)"/>
    <path class="cls-13" d="M436.78,1848s-15.08,19-24.47,19.58" transform="translate(29.26 -41.97)"/>
    <path class="cls-13" d="M342.23,1648.18s7.72,20.76,8.68,32.69a97.1,97.1,0,0,0,3.13,19s12.88,9.74,19.92,9.72,25.08-1.93,32.75,2.64,16.26,13.71,26.36,13.36,27.45-1.31,27.45-1.31" transform="translate(29.26 -41.97)"/>
    <path class="cls-13" d="M318.73,1720.45l6.74,33.94s-2.26,38.87,1.56,44.06,15.86,33.3,15.86,33.3,8.3,12.12,6.65,23.65" transform="translate(29.26 -41.97)"/>
    <line class="cls-13" x1="403.22" y1="1667.58" x2="401.48" y2="1694.58"/>
    <polyline class="cls-13" points="405.01 1696.48 380.55 1743.23 373.38 1790.55"/>
    <path class="cls-13" d="M258.94,1633.16l.81,1.32c8.72,14.29,17.92,28.38,26.2,42.93,8.41,14.77,16.88,29.18,29.84,40.59,15.53,13.66,35.36,15.69,54.9,19.48,23.45,4.54,46.95,8.88,70.45,13.18q27.41,5,54.83,9.92l6.38-.08" transform="translate(29.26 -41.97)"/>
    <path class="cls-16" d="M638.34,1777.91a5.14,5.14,0,0,1,3-.86l.57-3.63L511.43,1751.9s-17,6.66-3.49,22.45L619.33,1793a40.43,40.43,0,0,1,5.25-4C628.55,1784.67,633.33,1781.25,638.34,1777.91Z" transform="translate(29.26 -41.97)"/>
  </g>
  <g id="Layer_3" data-name="Layer 3">
    <path class="cls-12" d="M1025.08,1277.55l-64.5-65.87s-17.83-25-39.9-35.35l-16.6-22,60.18-29s53.11,50,55.63,69.57c0,0,20.83,8.49,18.31-12.31s-63.92-76.26-63.92-76.26l-15.43-36.66,164,6.14s75.94,15,77.1-3.94l67.38,50.78-22.64,27.09-45.28,1.71s-69.16,11.86-90.57,43.57c0,0-22.65,9.14-19,18Z" transform="translate(29.26 -41.97)"/>
    <polyline class="cls-17" points="97.61 1683.88 126.33 1672.15 106.31 1720.57 97.75 1724.27"/>
    <polyline class="cls-18" points="97.36 1615.34 106.58 1626.94 111.85 1644.66 141.49 1632.93 153.12 1463.38 93.21 1479.5"/>
    <path class="cls-19" d="M67.52,1496.37l56.25-14.89,16.51-5.56,40.31-22.18,36-25.83s-25.83-36-25.91-56.82c0,0-14.67,4.34-23.81,14.77s-25,22.12-25,22.12l8.63,18.33s.69,22.64-17.71,10.47c0,0-7.45-29.35-65.78-85.44" transform="translate(29.26 -41.97)"/>
    <path class="cls-20" d="M66.92,1326.25s61.41,61.59,62.05,67.09c0,0,26.23-21.51,28.05-26.41s28.09-16,28.09-16-16.73-58.69-25.91-59.88l-52.51,33.84,8,12.82s1.21,13.59-14,10.46c0,0-31.88-16.41-7.47-36.69s54.33-37.53,54.33-37.53-44.77-27.38-66.5-29.13" transform="translate(29.26 -41.97)"/>
    <path class="cls-21" d="M94.88,1101.56s-14,24.53-8.92,74.08-.85,51.4-.85,51.4,43.91,10.25,47,17.58c0,0,48.14-57.69,69.53-65.72,0,0-35.51-4.77-43.5-12.09S94.88,1101.56,94.88,1101.56Z" transform="translate(29.26 -41.97)"/>
    <path class="cls-22" d="M150.5,1253.74l6.14,4.87,31.73-24s8.53-12.27,20.83,4.82l5.84,7.78s19.68-15.77,24.77-3,25.63,66.44,25.63,66.44a44.76,44.76,0,0,1,19.23-14.45l-37.09-61.37S217.8,1207,214.7,1195.07C214.7,1195.07,150.31,1242.88,150.5,1253.74Z" transform="translate(29.26 -41.97)"/>
    <polygon class="cls-23" points="223.36 1211.07 228.74 1217.71 202.95 1234.48 199.57 1230.82 223.36 1211.07"/>
    <path class="cls-24" d="M258.66,1338.57,270.07,1365l-1.33,11,8,21.85s-40.94,16.06-42.92,20.35c0,0-20.74-25-25.9-56.51s-23-68.31-23-68.31l35.72-23.53.75-2.61,5.19-2.65L248.5,1321l-16,6.79L222.84,1290s-2.36-11.73-12.88-9-6.68,15.33-6.68,15.33l11.79,46.46s3,12.84,14.87,7S258.66,1338.57,258.66,1338.57Z" transform="translate(29.26 -41.97)"/>
    <path class="cls-25" d="M379.15,1361.85l-82.67,29.82-7.56-19.09,1.19-10.41-16.2-37.58s2.9-.16,7.48-2.93,24.28-14.32,24.28-14.32,7.64-3.7.4-14.84-41.71-70.07-41.71-70.07L243,1202.31,231.18,1184l33.74-21.38Z" transform="translate(29.26 -41.97)"/>
    <path class="cls-26" d="M156.54,1488.71l-12.12,7.39-12.65,170.17S173,1649,184,1647.42c0,0-3.06-1.22-2.85-26.62,0,0-13.81-12.49-17.2-18.29s-6.37-26.91-6.37-26.91,2.27-7.65,8.08-7.37,10.73,5.78,10.74,6.69,3.11,13.46,3.11,13.46a40.69,40.69,0,0,0,16,18c11.65,7,7.78,36.39,7.78,36.39l35.11-20.94Z" transform="translate(29.26 -41.97)"/>
    <path class="cls-27" d="M191.05,1470.23l-16.49,9.85,81.25,133.42,36.65-20.63L268.75,1551s-6.42,2.16-11.66-7.61-20.95-42.77-20.95-42.77-2.17-6.11,7.6-12.26S277,1471.14,277,1471.14s9.77-5.23,17.44-1.28,16.23,3.31,25.7.52,15-4.34,15-4.34a17.49,17.49,0,0,1,9.8,2.11c4.9,2.73,23.29,10,23.29,10l12.8-13.81s1.52-3.68,7-4,87.5-2.76,87.5-2.76l-.14-40.24s-38.29-11.95-45-17.13-36.49-21.9-36.49-21.9l-14.67,3.73,6.91,51.07s-2.37,20.2-18.95,4.66l-6.9-47.71-69.68,24.11-37.89,15.13-45.18,29.54a22.88,22.88,0,0,1,4,17.12l6.77,10.68s5.84,7.63-3.63,12.56-11.94-3.32-11.94-3.32L192,1481.24Z" transform="translate(29.26 -41.97)"/>
    <path class="cls-28" d="M285.35,1488.25l-26.26,13.25,13.26,28.41a18.59,18.59,0,0,1,11.65,8.83c4.62,7.63,24.64,44,24.64,44s43.65-28.3,62-29.59l-9.69-56-23.9-11.24S306.6,1499.06,285.35,1488.25Z" transform="translate(29.26 -41.97)"/>
    <path class="cls-29" d="M508.78,1418.91l-13.46,0-1.21,90s-2.73,8.58-11,6.47-7.36-6.71-7.36-6.71l-.14-30.9-83.8,3-2.75,2.77S393,1547.23,397,1550c0,0,55.38-1.73,62.71-4.21s45-.16,45-.16a33.46,33.46,0,0,1,3-13.78S505.44,1427.8,508.78,1418.91Z" transform="translate(29.26 -41.97)"/>
    <path class="cls-30" d="M483,1317.42,412.51,1366s46.62,31,56.41,29.17l2.41-8.88s-9.19-4.25-11.35-8.22-6.16-11.92-6.16-11.92-1.57-10.09,5.16-12.56,12.87,4.85,12.87,4.85l6.15,8.85,9.81,7.31s6.44,2.12,4,12.23-3.33,12.55-3.33,12.55l17.14-.06s-11.15-38.51-10.87-46.16S483,1317.42,483,1317.42Z" transform="translate(29.26 -41.97)"/>
    <path class="cls-31" d="M397.54,1286.51l8.86-5.23s23.72,45.2,27.09,47.33l-37.24,24.31-28.94-50.39,8.85-4.31S389,1303.07,397.54,1286.51Z" transform="translate(29.26 -41.97)"/>
    <path class="cls-32" d="M347.57,1174.4s25.63,64.77,46.53,91.32c0,0-15,8-15.26,11.07a20.4,20.4,0,0,0-13.44,4.64l-6.41,5.22s-48-78.46-49.57-86.11l26.27-13.25S342.38,1176,347.57,1174.4Z" transform="translate(29.26 -41.97)"/>
    <path class="cls-33" d="M493.05,1213l32.28,42.12s-52.19,37.2-54.3,47.31l-22.59,15.07L425.34,1273l-9.84-12.81,52.84-28Z" transform="translate(29.26 -41.97)"/>
    <path class="cls-34" d="M425.6,1090s51.47,103.54,55.16,107.2-74.8,47.08-74.8,47.08-26.74-32.65-45-86.74l28.92-39.88S405.13,1097.39,425.6,1090Z" transform="translate(29.26 -41.97)"/>
    <path class="cls-35" d="M512.6,1289.78s14.52,37.58,14.52,38.5l-16.5,6.18L498,1302.37Z" transform="translate(29.26 -41.97)"/>
    <path class="cls-36" d="M534.53,1346.61,515,1354l9.95,44s28.43-6.83,29.64-10.51C554.56,1387.54,536.41,1358.84,534.53,1346.61Z" transform="translate(29.26 -41.97)"/>
    <path class="cls-37" d="M567.78,1403.1s-28.4,15.7-40.34,14.06L526,1447.61l26.92-.09s8,2.42,7.07,9.76a11.78,11.78,0,0,1-7.61,9.52l-26.32.09.25,70.07-2.42,5.52,0,7s33.71,13.35,90.62,14.06c0,0-9.36-51.37-10.79-107.67Z" transform="translate(29.26 -41.97)"/>
    <path class="cls-38" d="M664.53,1333.91l.05,14.38-2.13,3.68-1.66,50.8-48.85,28.63L583,1392S648,1341.92,664.53,1333.91Z" transform="translate(29.26 -41.97)"/>
    <path class="cls-39" d="M662.71,1425.1l-40.31,23.39,10.49,110.43s15.89-6.18,68.65-55.63c0,0-24.57-25.62-28.26-32s-5.62-29.35-5.62-29.35Z" transform="translate(29.26 -41.97)"/>
    <path class="cls-40" d="M571.35,1375.85l48.83-36.58-12-24.13-56.22,22.23S559.67,1359.68,571.35,1375.85Z" transform="translate(29.26 -41.97)"/>
    <path class="cls-41" d="M499.7,1190.07l42.73,55.54,38.16-24s-33-58.33-35.7-58.32S499.7,1190.07,499.7,1190.07Z" transform="translate(29.26 -41.97)"/>
    <polygon class="cls-42" points="619.09 1109.53 597.1 1119.1 627.27 1170.7 660.25 1153.75 619.09 1109.53"/>
    <polygon class="cls-43" points="631.27 1092.96 679.81 1145.73 662.4 1069.9 631.27 1092.96"/>
    <path class="cls-44" d="M791.06,1122.33s-97.5,59.17-121.57,59.49l-15.85-68.49,0-7.95s10.4-2.79,8.49-22.37C662.1,1083,728.7,1139.69,791.06,1122.33Z" transform="translate(29.26 -41.97)"/>
    <path class="cls-45" d="M544.53,1318.73s-10.53-33.31-15.75-40.33c0,0,116.92-76.3,164.62-84.12l21,50.72s-16.44,22.39-10.9,33.39l-72.07,40-9.55-18.94s-2.48-8.86-13.18-5.46S544.53,1318.73,544.53,1318.73Z" transform="translate(29.26 -41.97)"/>
    <path class="cls-46" d="M519.06,1042.52,619,1008.2l9.79,0-1.23,83.53S576,1124,576.92,1135.94l-21.38,9.87-8.27-3-5.85-9.92-13.27-31.62S517.89,1055.38,519.06,1042.52Z" transform="translate(29.26 -41.97)"/>
    <path class="cls-47" d="M499.2,1050.85l-56.8,29.89,47.14,92.54,38.77-24.92L522.46,1138l-13-29.94S500.19,1068.6,499.2,1050.85Z" transform="translate(29.26 -41.97)"/>
    <path class="cls-48" d="M73.81,896.32l26.62-11.62,32.8,46L96.28,956.09l-6.93-9,14.17-9s3-4.88-4.79-17.74-13.87-21.83-13.87-21.83-11.43-5.3-15.91,4.49S73.81,896.32,73.81,896.32Z" transform="translate(29.26 -41.97)"/>
    <path class="cls-49" d="M71.8,995.11c11-4.76,71.45-47.6,71.45-47.6l35.54,59.71-71.49,43.63S81.6,1070.73,69,1106.22" transform="translate(29.26 -41.97)"/>
    <path class="cls-50" d="M186.25,1026.86l68.41,118.06-37.08,22.2s-3.2-13.17-38.79-16c0,0-16-7.35-32.74-26.11,0,0,11-4.63,6.12-12.92s-24.07-24.62-24.07-24.62-9.79-5.3-18.36-.81l-4.48-2.86s6.63-12.56,18.61-19.34S186.25,1026.86,186.25,1026.86Z" transform="translate(29.26 -41.97)"/>
    <path class="cls-51" d="M202.89,1015.7l64.88-40,53.3,86.9L299.26,1077l-50-77.25s-6.12-6.53-13.05-1.23-1.23,15.1-1.23,15.1l68.54,109.09s4.08,7.09,17.54,0a306.33,306.33,0,0,0,27-16.48l10.51,19.63-37.26,46.5L301,1183.13Z" transform="translate(29.26 -41.97)"/>
    <polygon class="cls-52" points="338.68 1050.38 361.76 1035.02 368.7 1048 344.22 1061.12 338.68 1050.38"/>
    <path class="cls-53" d="M371.66,1106.22,286.8,966.69s14.9-15.5,61.3-13.87S479,956.09,479,956.09l13.87,75.47S373.7,1083.78,371.66,1106.22Z" transform="translate(29.26 -41.97)"/>
    <path class="cls-54" d="M117.93,873.62l78.44,124.46,58.29-36.69-78-132.18S120.41,864.59,117.93,873.62Z" transform="translate(29.26 -41.97)"/>
    <path class="cls-55" d="M201.64,812.89,241.93,786l88.93,148.09s-24.47-2.28-51.81,13.46Z" transform="translate(29.26 -41.97)"/>
    <path class="cls-56" d="M258.65,772.91l97.51-64.06h10.61s115.45,180.74,107.7,225.2c0,0-41.9,7.62-125.65-1.63v-6.93Z" transform="translate(29.26 -41.97)"/>
    <path class="cls-57" d="M504.25,952.7s145.24-11.3,164.42-1.92L667,970.36,670.71,983l-24.89,8.43s-11-12.51-51.81,3.4-80,26.93-80,26.93l-3.67-23.69s49.37-4.05,44.47-18.33-22.85-4.08-48.55-1.23Z" transform="translate(29.26 -41.97)"/>
    <path class="cls-58" d="M663.36,1006.27,707,991.44l18.36,39.71,22.44,19.7s10.2.29,11.83-4.6,3.27-8.57-2.44-13.06-18.36-20.4-18.36-20.4L726.19,982.2l14.69-6.53,22,46.1L774.74,1034l2.45,14.28s16.31,29.18,17.13,31.11,9,15,9,15,8.16,3.67,11,0S818,1083,818,1083l-24.07-47.17h9.79l21.63,54.2-20,13s-.82-3.34-17.55-1.53-40,7.11-70.17-8-56.71-35.9-56.71-35.9Z" transform="translate(29.26 -41.97)"/>
    <path class="cls-59" d="M695.59,918.55l-9.82,50.18,4.91,8.57,41.63-19.58S715.17,925.49,695.59,918.55Z" transform="translate(29.26 -41.97)"/>
    <path class="cls-60" d="M580.59,920.39l2,8.36s42.07-7.86,91,2.86l3.67-23.26S634.09,906.32,580.59,920.39Z" transform="translate(29.26 -41.97)"/>
    <path class="cls-61" d="M653.61,856.54l-3.07,31.82s22.2,0,29.55,4.49l5.68-28.56Z" transform="translate(29.26 -41.97)"/>
    <path class="cls-62" d="M647.45,805.54V834.1l44.47,11.83,12.24-33.45S669.48,797.79,647.45,805.54Z" transform="translate(29.26 -41.97)"/>
    <path class="cls-12" d="M497.32,884.7s-.54,46.09,2.38,49.76L562.59,930,561,913.64s-4.62-9,6.87-11.41S631,890.81,631,890.81l3-40.39s-6.86-.41-7.72-12.65,0-41.2,0-41.2,1.6-8.57,15.06-10.61,42.43-3.26,69.36,7.34l21.62-62.42s23.25-78.73,28.15-107.29c0,0-148.09-2.45-157.89,2s-13.05,4.89-13.05,4.89L472.43,642.76s-29,1.63-80.37,42.43l102,181.54,79.83-5.7s10.74.81,9.93,8.16-7.55,10.2-7.55,10.2Z" transform="translate(29.26 -41.97)"/>
    <polygon class="cls-63" points="116.57 788.87 124.32 796.21 183.89 756.64 176.13 748.07 116.57 788.87"/>
    <path class="cls-64" d="M78.74,811.66,145.65,768l-27.72-46.1s-4.92-8.16,4.46-13.06S189.71,673,189.71,673s6.31-3.26,11.93,5.31,35,57.93,35,57.93L312.91,684l-29-67.32s-2.86-11,6.12-13,31.41-9,31.41-9-7.75-36.72,0-45.28c0,0-11.83-73-2-100l-19.58-12.23s-26.93,15.5-49.77,11.42S138.71,418,133.81,409.81l-12.64,5s-17.55,4-42.43-9.1H67.93l5.88,408.38Z" transform="translate(29.26 -41.97)"/>
    <polygon class="cls-65" points="206.73 740.73 170.42 680.35 218.16 653.42 252.66 710.13 206.73 740.73"/>
    <polygon class="cls-66" points="354.42 624.04 365.84 616.7 358.09 571.82 334.84 577.94 354.42 624.04"/>
    <path class="cls-67" d="M352.9,633.79l-3.68-22.44s22-16.73,26.93-5.71S371.83,624,352.9,633.79Z" transform="translate(29.26 -41.97)"/>
    <path class="cls-68" d="M363.34,650.92v4.49s80.53-51,96.85-51.81l-9.79-22.85s-15.91-3.67-32.64,8.16c0,0,8.57,6.12-3.67,19.79s-18.77,19.38-18.77,19.38h-3.26S393.77,633,363.34,650.92Z" transform="translate(29.26 -41.97)"/>
    <path class="cls-69" d="M585.85,584.42,583,567.29l9.79-4.9,167.68-13s21.62,2.45,17.95,32.64l-16.32,2.44-18.36-6.12-62.82,1.91-9.39,4.21H647.45l-7.75-4.21Z" transform="translate(29.26 -41.97)"/>
    <polygon class="cls-70" points="837.09 1096.55 868.97 1079.16 895.39 1128.71 861.93 1145.73 837.09 1096.55"/>
    <polygon class="cls-71" points="762.78 1137.07 820.32 1105.69 845.21 1154 787.76 1187.11 762.78 1137.07"/>
    <polygon class="cls-72" points="905.18 1048 924.76 1093.09 980.65 1066.69 963.52 1018.33 905.18 1048"/>
    <path class="cls-73" d="M953.43,1050.85l130.55,2.74s51.4,3.22,72.21,6.71,35.09,0,35.09,0l-42.84-84.63S1062,993.45,953.43,1050.85Z" transform="translate(29.26 -41.97)"/>
    <path class="cls-74" d="M1275.32,1097.68l-15.91-7.7v-7l-44.67-35.54s-32.44-60-30-75.88l104.64-37.13" transform="translate(29.26 -41.97)"/>
    <path class="cls-75" d="M1289.39,913.45c-4.28,0-111.37,39.25-111.37,39.25l-33-110.23,55.08-30.81,54.46,52.22" transform="translate(29.26 -41.97)"/>
    <polygon class="cls-76" points="1069.59 860.46 1146.09 814.57 1174.24 913.71 1104.47 933.7 1069.59 860.46"/>
    <path class="cls-77" d="M1027.48,885.3s36.71-19.58,48.34-28.76,36.72-18.36,36.72-18.36l-4.9-13.57-6.73-1.68-24.48-44.24L1033,807.58l-18.35,1.23L992,822.93Z" transform="translate(29.26 -41.97)"/>
    <polygon class="cls-78" points="991.87 799.27 1004.73 793.15 1028.59 831.65 1001.66 843.33 991.87 799.27"/>
    <polygon class="cls-79" points="1010.23 861.69 1035.93 850.88 1046.34 866.28 1013.9 876.58 1010.23 861.69"/>
    <polygon class="cls-80" points="1021.25 895.03 1059.19 882.5 1084.28 942.44 1033.03 962.66 1021.25 895.03"/>
    <polygon class="cls-81" points="976.58 892.49 995.54 882.5 971.68 810.28 939.25 827.42 976.58 892.49"/>
    <path class="cls-82" d="M833.49,916.1s-2.25,72.62,6.22,78.74c0,0,3.57-7.34,20.09-14.68s70.37-33.1,70.37-33.1l-38.55-73.44L861,889l-1.22,7.35Z" transform="translate(29.26 -41.97)"/>
    <path class="cls-83" d="M843.89,1012.59s15.09-5.51,22.23-13.46l64-28.77,21.22-15.29,19.17-8,15.3,65.53-119.74,61.82Z" transform="translate(29.26 -41.97)"/>
    <path class="cls-84" d="M791.06,947.06l-30.6,17.49s14.89,61,39.37,54.21C799.83,1018.76,788.41,954.35,791.06,947.06Z" transform="translate(29.26 -41.97)"/>
    <path class="cls-85" d="M750.26,947.93l40.8-28,3.26-23s-20.6-12.65-3.26-22.24c0,0,10-79.75,21-88.73,0,0-21.63-16.93-69-19.38,0,0-48.07,119.33-41.58,129.74S746,929.77,750.26,947.93Z" transform="translate(29.26 -41.97)"/>
    <path class="cls-86" d="M839.71,885.3l42-112.6,48.47-12.85,8,14.69L910,786s-10.58,6.32-5.9,11.83,4.06,7.32,10.8,5.49,31.21-10.38,31.21-10.38l16.52,27.53-64.26,31.83H881.7Z" transform="translate(29.26 -41.97)"/>
    <polyline class="cls-87" points="1116.71 645.67 1101.62 662.8 1165.67 782.64 1213.88 758.88"/>
    <path class="cls-88" d="M749.65,747l30.49-119.94s72.93,1.83,95.57,9.79c0,0,0,12.24-8.57,14.68s-15.3,3.06-23.25,23.26S809,763.52,809,763.52,818.19,759.24,749.65,747Z" transform="translate(29.26 -41.97)"/>
    <path class="cls-89" d="M803.5,566.88l9.18,13.33,56.3,4.21V539.55s-5.51-4.29-7.34-9.8c0,0-28.15,13.47-41.62,9.18C820,538.93,818.8,559.94,803.5,566.88Z" transform="translate(29.26 -41.97)"/>
    <path class="cls-90" d="M408.18,308.84,435.71,370s6.74,11,0,17.14-58.26,35.49-58.26,35.49l-36.59,24.48s-6.12,47.12-4.28,68.54,12.64,64.53,12.64,64.53.58,6.4,17.53,0,31-5.78,34.08-3.33c0,0,61.2-46.51,77.72,18.35l88.73-10.81-4.28-21s-1.84-16.52,28.15-19,45.29-3.67,45.29-3.67l-5.51-71s0-9.18,11-9.79,19-1.22,19-1.22,1.84-9.18-6.12-6.73-11-8-11-8L642.56,419s-22,33.66-55.69,33.05-112,7.34-112,7.34-9.14,20.19-39.13,19-29.37.61-31.21-11.63,38.56-9.79,38.56-9.79,17.13-5.51,23.25-12.24,23.26-6.12,23.26-6.12L583,433.68s24.07,3.47,46.1-27.95c0,0-3.67-21.62,5.51-27.74a83.27,83.27,0,0,1,15.94-8.57l21.39-30L557.49,256.21l-3.67-9.79S515.18,291.26,408.18,308.84Z" transform="translate(29.26 -41.97)"/>
    <path class="cls-91" d="M697.63,354.12l-21.83,30.6s6.33,15.1,0,21A102.48,102.48,0,0,1,664,415.32v20.19s20.81,3.06,16.83,23.87-2.75,15.3-16.83,16.52-13.43,4.29-13.43,4.29l3,60,96.08-10.41s29.47-4.92,44.06,19.59c0,0,9.18-9.79,9.79-17.14s9.18-14.68,9.18-14.68,7.34-.62,12.85,1.83,25.09-5.51,25.09-5.51L869,509s1.22-78.33-32.74-123.62l8.26,56.92s-1.22,7.95-8.26,9.48-12.55-9.48-12.55-9.48l-8-56.31s-1.84-10.46-17.14-23.28-16.52-14-30.59-12.82-37.33,8-37.33,8S706.81,360.24,697.63,354.12Z" transform="translate(29.26 -41.97)"/>
    <path class="cls-92" d="M715.38,338.82l18.36-27.53,15.91-2.45,32.43,21.42s-25.09-3.42-36.72,2.88S715.38,338.82,715.38,338.82Z" transform="translate(29.26 -41.97)"/>
    <path class="cls-93" d="M571,231.73l30.59-31.21s78.33,67.93,96.08,74l3.31,18.36-20,30.91L580.14,249.48S581.36,236,571,231.73Z" transform="translate(29.26 -41.97)"/>
    <polygon class="cls-94" points="350.34 385.58 409.29 356.82 357.27 388.64 350.34 385.58"/>
    <path class="cls-95" d="M157.88,398.8l132.19-55.69s11,37.12,34.27,62.62c0,0-56.1,26.11-65.69,24.89S163.39,402.47,157.88,398.8Z" transform="translate(29.26 -41.97)"/>
    <path class="cls-96" d="M305.57,335.15s43.6-16,81.19-22.64l25,52-70.9,31.21S315.57,360.85,305.57,335.15Z" transform="translate(29.26 -41.97)"/>
    <path class="cls-97" d="M499.36,81.17l83.63,101s-48.55,80.78-190.93,97.3L315.77,110s8.57,5.46-2.45-28.78S499.36,81.17,499.36,81.17Z" transform="translate(29.26 -41.97)"/>
    <path class="cls-98" d="M206.84,81.17s2.45-10.38,54.47,55.1l34.27-27.85-12.24-15-2.45-19.58Z" transform="translate(29.26 -41.97)"/>
    <polygon class="cls-99" points="103.07 45.95 152.27 45.95 97.19 76.55 103.07 45.95"/>
    <path class="cls-100" d="M73.81,139.94,123,111.18s3.68-6.12,26.93-6.12,27.54-5.51,27.54-5.51,23.25-4.9,29.37,1.83,40.39,49,40.39,49l-86.71,77.11s-6.55,11.63,0,15.3,13.28,0,13.28,0L301.69,128.31l72.22,156.05-37.33,8.57s-36.11,11.62-209.9,84.45c0,0-6.74,8.56-24.48,3.06s-34.27-11.63-34.27-11.63Z" transform="translate(29.26 -41.97)"/>
    <polygon class="cls-101" points="584.31 39.2 628.37 94.29 633.27 45.95 638.77 41.67 638.77 36.16 584.31 39.2"/>
    <polygon class="cls-102" points="658.36 39.2 653.46 90.62 649.18 105.92 653.77 110.82 660.8 110.82 671.21 110.82 675.49 36.16 658.36 39.2"/>
    <path class="cls-103" d="M640.72,169.92l14.69,13.47,4.28-6.73s-5.51-3.68-6.12-6.74Z" transform="translate(29.26 -41.97)"/>
    <path class="cls-104" d="M663.36,124s8.57-1.23,12.85,4.89h69.15s-1.22,13.47,48.35,35.5L782.08,192,736.8,166.86S726.61,162,680.91,165c0,0-.41-17.75-17.55-12.24Z" transform="translate(29.26 -41.97)"/>
    <circle class="cls-105" cx="682.84" cy="354.07" r="5.81"/>
    <path class="cls-106" d="M671.93,196.85s6.25,1.22,13.84-13.46h40l127.9,69.76-12.85,62.42S757.6,255.6,671.93,196.85Z" transform="translate(29.26 -41.97)"/>
    <path class="cls-107" d="M872.65,262.18,926.5,291.7s-29.37,60.59-50.79,65.48l-18.36-25.09S870.2,318,861,315.57Z" transform="translate(29.26 -41.97)"/>
    <path class="cls-108" d="M1098.46,633.79s-37.94,39.77-43.45,38.55l-2.75-3.67s5.2-1.22,2.75-10.4c0,0,4.29-8.57,0-15.91S977.3,526.08,977.3,526.08L990.76,520" transform="translate(29.26 -41.97)"/>
    <path class="cls-109" d="M887.34,763.52l59.36-14.07,30.6,59.36,22-13.47s15.91-8,24.17-6.73l43.75-25.09s-13.46-23.25-15-32.43c0,0-38.86-72.21-114.13-80.78Z" transform="translate(29.26 -41.97)"/>
    <polygon class="cls-110" points="957.3 536.43 958.22 559.08 965.1 561.06 968.01 558.16 957.3 536.43"/>
    <path class="cls-111" d="M937.06,545.51l23.41-11,72.82,112.6s-21.42-22.49-72.06-36.41c0,0,3.83-5.05-2.14-15.15S933.71,547.09,937.06,545.51Z" transform="translate(29.26 -41.97)"/>
    <path class="cls-112" d="M980.66,501.91l-57.52,29.68-7.65-69.76s13.46,7.65,37.63,2.75,23-5.81,23-5.81" transform="translate(29.26 -41.97)"/>
    <polygon class="cls-113" points="931.9 378.85 934.04 385.89 936.19 382.37 931.9 378.85"/>
    <path class="cls-114" d="M969,441.33s-31.51,10.71-48.95,1.53c0,0,4.74-6.12,16.59-8.88,0,0,2.38-1.53,5.44-6.12S958,418.68,958,418.68" transform="translate(29.26 -41.97)"/>
    <path class="cls-115" d="M955.88,308.84l-26.62,51.1s-17.75,26.31-22.34,26.62c0,0,5.2,2.44,4,13.15l9.18,10.41s3.67,4.59,11.32,0,26.93-12.24,26.93-12.24" transform="translate(29.26 -41.97)"/>
  </g>
  <g id="markrer">
    <g>
      <path class="cls-116" d="M208.39,1370c0,7.35,5.54,13.58,13.18,15.68,4,5.19,5.7,18.78,5.7,18.78s1.7-13.59,5.69-18.78c7.64-2.1,13.19-8.33,13.19-15.68" transform="translate(29.26 -41.97)"/>
      <path class="cls-116" d="M246.15,1370c0-9.08-8.46-16.44-18.88-16.44s-18.88,7.36-18.88,16.44" transform="translate(29.26 -41.97)"/>
    </g>
  </g>
  <g id="Layer_6" data-name="Layer 6">
    <text class="cls-117" transform="translate(356.65 1711.97) rotate(-0.2)">MUNKEMOSE</text>
    <text x="29.26" y="-41.97"/>    <text class="cls-118" transform="translate(190.43 1440.79) rotate(60)"><tspan class="cls-119">N</tspan><tspan x="9.56" y="0">Y</tspan><tspan class="cls-120" x="17.51" y="0"> </tspan><tspan x="20.09" y="0">VESTE</tspan><tspan class="cls-121" x="57.28" y="0">R</tspan><tspan x="65.22" y="0">GADE</tspan></text>
    <text class="cls-122" transform="translate(290.74 1379.18) rotate(-20)">VESTE<tspan class="cls-123" x="43.38" y="0">R</tspan><tspan x="52.65" y="0">GADE</tspan></text>
    <text class="cls-124" transform="translate(575.23 1219.12) rotate(-30)">VESTE<tspan class="cls-125" x="43.39" y="0">R</tspan><tspan x="52.65" y="0">GADE</tspan></text>
    <text class="cls-126" transform="translate(254.96 1199.02) rotate(70)">B<tspan class="cls-127" x="7.96" y="0">R</tspan><tspan x="15.93" y="0">AN</tspan><tspan class="cls-128" x="34.59" y="0">D</tspan><tspan class="cls-129" x="44" y="0">T</tspan><tspan x="51.21" y="0">S </tspan><tspan class="cls-130" x="61.57" y="0">P</tspan><tspan x="68.15" y="0">ASS</tspan><tspan class="cls-131" x="91.61" y="0">A</tspan><tspan x="100.38" y="0">GE</tspan></text>
    <text class="cls-132" transform="translate(233.58 1250.18) rotate(70)">B<tspan class="cls-133" x="6.63" y="0">R</tspan><tspan x="13.28" y="0">AN</tspan><tspan class="cls-134" x="28.82" y="0">D</tspan><tspan class="cls-135" x="36.67" y="0">T</tspan><tspan x="42.68" y="0">S</tspan></text>
    <text class="cls-118" transform="translate(253.03 1037.07) rotate(60)"><tspan class="cls-136">K</tspan><tspan x="7.71" y="0">ONGENS GADE</tspan></text>
    <text class="cls-137" transform="matrix(0.87, 0.49, -0.49, 0.87, 459.33, 1351.43)">M</text>
    <text class="cls-137" transform="translate(469.9 1357.38) rotate(25.36)">A</text>
    <text class="cls-137" transform="translate(478.21 1361.32) rotate(21.42)">G</text>
    <text class="cls-137" transform="matrix(0.95, 0.3, -0.3, 0.95, 487.42, 1364.89)">E</text>
    <text class="cls-137" transform="translate(494.68 1367.18) rotate(14.28)">L</text>
    <text class="cls-137" transform="translate(501.3 1368.92) rotate(10.38)"></text>
    <text class="cls-137" transform="matrix(0.99, 0.11, -0.11, 0.99, 511.71, 1370.76)">S</text>
    <text class="cls-137" transform="matrix(1, 0.04, -0.04, 1, 519.32, 1371.56)">E</text>
    <text class="cls-138" transform="translate(197.88 1250.64) rotate(57.58)">P</text>
    <text class="cls-138" transform="translate(201.39 1256.02) rotate(61.65)">A</text>
    <text class="cls-138" transform="matrix(0.36, 0.93, -0.93, 0.36, 205.6, 1263.63)">N</text>
    <text class="cls-138" transform="translate(208.77 1272.45) rotate(75.44)">T</text>
    <text class="cls-138" transform="translate(210.6 1279.5) rotate(76.16)">H</text>
    <text class="cls-138" transform="translate(212.88 1288.78) rotate(76.12)">E</text>
    <text class="cls-138" transform="translate(214.61 1295.8) rotate(75.71)">O</text>
    <text class="cls-138" transform="translate(217.09 1305.56) rotate(74.94)">N</text>
    <text class="cls-138" transform="matrix(0.27, 0.96, -0.96, 0.27, 219.6, 1314.87)">S</text>
    <text class="cls-138" transform="matrix(0.29, 0.96, -0.96, 0.29, 221.56, 1321.79)">G</text>
    <text class="cls-138" transform="translate(224.32 1330.82) rotate(71.55)">A</text>
    <text class="cls-138" transform="matrix(0.35, 0.94, -0.94, 0.35, 227.12, 1339.27)">D</text>
    <text class="cls-138" transform="matrix(0.38, 0.92, -0.92, 0.38, 230.58, 1348.56)">E</text>
    <text class="cls-138" transform="translate(542.14 1383.98) rotate(90)">HOLSEDORE</text>
    <text class="cls-139" transform="translate(588.17 1358.16) rotate(-35)">S<tspan class="cls-140" x="6.03" y="0">K</tspan><tspan class="cls-141" x="12.92" y="0">T</tspan><tspan x="18.27" y="0">. KNUDS KIRKEST</tspan><tspan class="cls-142" x="103.7" y="0">R</tspan><tspan x="110.35" y="0">DE</tspan></text>
    <text class="cls-143" transform="translate(638.5 1409.98) rotate(85)">KLAREGADE</text>
    <text class="cls-138" transform="matrix(0.55, -0.84, 0.84, 0.55, 753.25, 1459.31)">K</text>
    <text class="cls-138" transform="translate(757.77 1452.4) rotate(-59.41)">L</text>
    <text class="cls-138" transform="translate(761.2 1446.68) rotate(-62.39)">O</text>
    <text class="cls-138" transform="translate(766.02 1437.36) rotate(-65.75)">S</text>
    <text class="cls-138" transform="matrix(0.36, -0.93, 0.93, 0.36, 769.11, 1430.48)">T</text>
    <text class="cls-138" transform="translate(771.87 1423.4) rotate(-71.56)">E</text>
    <text class="cls-138" transform="translate(774.26 1416.23) rotate(-74.68)">R</text>
    <text class="cls-138" transform="translate(776.44 1408.27) rotate(-77.98)">B</text>
    <text class="cls-138" transform="translate(778.18 1400.12) rotate(-81.53)">A</text>
    <text class="cls-138" transform="translate(779.53 1390.84) rotate(-85.07)">K</text>
    <text class="cls-138" transform="translate(780.23 1382.57) rotate(-88.35)">K</text>
    <text class="cls-138" transform="matrix(-0.02, -1, 1, -0.02, 780.45, 1374.27)">E</text>
    <text class="cls-138" transform="matrix(-0.08, -1, 1, -0.08, 780.29, 1366.7)">N</text>
    <text class="cls-118" transform="translate(383.87 1139.06) rotate(60)">VIN<tspan class="cls-144" x="21.37" y="0">T</tspan><tspan x="27.57" y="0">APPERST</tspan><tspan class="cls-145" x="81.85" y="0">R</tspan><tspan x="89.82" y="0">DE</tspan></text>
    <text class="cls-118" transform="translate(425.55 1057.59) rotate(-30)">S<tspan class="cls-146" x="7.24" y="0">L</tspan><tspan class="cls-147" x="13.6" y="0">O</tspan><tspan class="cls-148" x="23.35" y="0">T</tspan><tspan x="30.56" y="0">SGADE</tspan></text>
    <text class="cls-149" transform="translate(525.07 962.44) rotate(80)">JERNBANEGADE</text>
    <text class="cls-150" transform="translate(452.75 1199.37) rotate(-30)">G<tspan class="cls-151" x="7.91" y="0">R</tspan><tspan x="14.55" y="0">B</tspan><tspan class="cls-152" x="28.68" y="0">R</tspan><tspan x="35.3" y="0">DRE </tspan><tspan class="cls-153" x="9.11" y="14.69">P</tspan><tspan x="14.59" y="14.69">ASS</tspan><tspan class="cls-154" x="34.15" y="14.69">A</tspan><tspan x="41.45" y="14.69">GE</tspan></text>
    <text class="cls-132" transform="translate(533.96 1132.43) rotate(-20)">S<tspan class="cls-155" x="6.03" y="0">K</tspan><tspan x="12.92" y="0">T GE</tspan><tspan class="cls-156" x="35.53" y="0">R</tspan><tspan x="42.22" y="0">TRU</tspan><tspan class="cls-157" x="62.81" y="0">D</tspan><tspan x="71.13" y="0">-</tspan><tspan x="16.15" y="14.69">ST</tspan><tspan class="cls-158" x="28.27" y="14.69">R</tspan><tspan x="34.92" y="14.69">DE</tspan></text>
    <text class="cls-150" transform="translate(624.41 1081.22) rotate(-30)">G<tspan class="cls-151" x="7.91" y="0">R</tspan><tspan x="14.55" y="0">B</tspan><tspan class="cls-152" x="28.68" y="0">R</tspan><tspan x="35.3" y="0">DRE </tspan><tspan x="15.26" y="14.69">PLADS</tspan></text>
    <text class="cls-159" transform="translate(674.17 1076.36) rotate(80)">AS<tspan class="cls-160" x="13.52" y="0">Y</tspan><tspan class="cls-161" x="20.06" y="0">L</tspan><tspan x="25.36" y="0">GADE</tspan></text>
    <text class="cls-162" transform="translate(671.18 958.53) rotate(92)">AS<tspan class="cls-163" x="13.52" y="0">Y</tspan><tspan class="cls-164" x="20.06" y="0">L</tspan><tspan x="25.36" y="0">GADE</tspan></text>
    <text class="cls-118" transform="translate(725.98 1135.31) rotate(60)">FLAKH<tspan class="cls-165" x="40.61" y="0">A</tspan><tspan x="48.82" y="0">VEN</tspan></text>
    <text class="cls-138" transform="matrix(0.82, 0.58, -0.58, 0.82, 701.47, 1042.92)"> </text>
    <text class="cls-138" transform="translate(704 1044.73) rotate(33.99)">S</text>
    <text class="cls-138" transform="matrix(0.84, 0.54, -0.54, 0.84, 709.96, 1048.75)">T</text>
    <text class="cls-138" transform="translate(715.11 1052.05) rotate(31)"></text>
    <text class="cls-138" transform="matrix(0.87, 0.49, -0.49, 0.87, 722.76, 1056.64)">L</text>
    <text class="cls-138" transform="translate(727.64 1059.4) rotate(27.99)">T</text>
    <text class="cls-138" transform="translate(734.22 1062.9) rotate(26.09)">R</text>
    <text class="cls-138" transform="matrix(0.92, 0.4, -0.4, 0.92, 741.65, 1066.58)"></text>
    <text class="cls-138" transform="translate(752.65 1071.29) rotate(19.67)">D</text>
    <text class="cls-138" transform="matrix(0.96, 0.28, -0.28, 0.96, 762.2, 1074.66)">E</text>
    <text class="cls-166" transform="translate(737.46 809.16) rotate(-71)">NRREGADE</text>
    <text class="cls-117" transform="translate(792.63 1357.03) rotate(-0.2)"><tspan class="cls-167">E</tspan><tspan x="11.04" y="0">VEN</tspan><tspan class="cls-168" x="48.67" y="0">T</tspan><tspan class="cls-169" x="60.23" y="0">Y</tspan><tspan x="72" y="0">RH</tspan><tspan class="cls-170" x="98.21" y="0">A</tspan><tspan x="110.53" y="0">VEN</tspan></text>
    <text class="cls-117" transform="translate(445.94 661.65) rotate(-0.2)"><tspan class="cls-171">K</tspan><tspan x="11.57" y="0">ONGENS H</tspan><tspan class="cls-172" x="110.7" y="0">A</tspan><tspan x="123.02" y="0">VE</tspan></text>
    <text class="cls-166" transform="translate(910.95 647) rotate(109)"><tspan class="cls-173">T</tspan><tspan x="6.9" y="0">O</tspan><tspan class="cls-174" x="17.02" y="0">R</tspan><tspan x="25.16" y="0">VEGADE (</tspan><tspan class="cls-175" x="83.35" y="0">L</tspan><tspan x="89.75" y="0">UKK</tspan><tspan class="cls-174" x="115.17" y="0">E</tspan><tspan class="cls-176" x="122.63" y="0">T</tspan><tspan x="130.81" y="0">)</tspan></text>
    <text class="cls-177" transform="translate(844.05 973.1) rotate(64)"><tspan class="cls-178">T</tspan><tspan x="6.9" y="0">O</tspan><tspan class="cls-179" x="17.02" y="0">R</tspan><tspan x="25.16" y="0">VEGADE (</tspan><tspan class="cls-180" x="83.35" y="0">L</tspan><tspan x="89.75" y="0">UKK</tspan><tspan class="cls-179" x="115.17" y="0">E</tspan><tspan class="cls-181" x="122.63" y="0">T</tspan><tspan x="130.81" y="0">)</tspan></text>
    <text class="cls-182" transform="translate(546.51 1246.9) rotate(65)">KLAREGADE</text>
    <text class="cls-183" transform="matrix(0.26, 0.97, -0.97, 0.26, 518.87, 1269.55)">SMEDESTR.</text>
    <text class="cls-184" transform="translate(922.07 1033.81) rotate(-25)">OVE<tspan class="cls-185" x="29.8" y="0">R</tspan><tspan x="39.07" y="0">GADE</tspan></text>
    <text class="cls-186" transform="translate(190.45 1186.11) rotate(-35)">B<tspan class="cls-187" x="7.96" y="0">R</tspan><tspan x="15.94" y="0">AN</tspan><tspan class="cls-188" x="34.59" y="0">D</tspan><tspan class="cls-189" x="44" y="0">T</tspan><tspan x="51.21" y="0">S</tspan><tspan class="cls-190" x="58.45" y="0"> </tspan><tspan class="cls-191" x="60.97" y="0">T</tspan><tspan x="67.87" y="0">O</tspan><tspan class="cls-192" x="77.99" y="0">R</tspan><tspan x="86.12" y="0">V</tspan></text>
    <text class="cls-118" transform="translate(328.65 976.64) rotate(60)">K<tspan class="cls-193" x="7.96" y="0">L</tspan><tspan x="14.32" y="0">OSTE</tspan><tspan class="cls-194" x="46.2" y="0">R</tspan><tspan x="54.34" y="0">V</tspan><tspan class="cls-195" x="62.54" y="0">E</tspan><tspan x="70.03" y="0">J</tspan></text>
    <text class="cls-138" transform="translate(1034.48 1022.92) rotate(3)">NEDE<tspan class="cls-196" x="33.9" y="0">R</tspan><tspan x="41.84" y="0">GADE</tspan></text>
    <text class="cls-197" transform="translate(163.88 802.05) rotate(-35)">VESTRE S<tspan class="cls-198" x="64.68" y="0">T</tspan><tspan class="cls-199" x="71.91" y="0">A</tspan><tspan x="81.08" y="0">TIONSV</tspan><tspan class="cls-200" x="134.78" y="0">E</tspan><tspan x="143.52" y="0">J</tspan></text>
    <text class="cls-201" transform="translate(651.89 564.4)">STRE S<tspan class="cls-202" x="58.5" y="0">T</tspan><tspan class="cls-203" x="65.73" y="0">A</tspan><tspan x="74.89" y="0">TIONSV</tspan><tspan class="cls-204" x="128.59" y="0">E</tspan><tspan x="137.33" y="0">J</tspan></text>
    <text class="cls-184" transform="translate(1099.68 690.08) rotate(65)">HANS MULES GADE</text>
    <text class="cls-149" transform="translate(889.31 954.22) rotate(-25)">BANGS BODER</text>
    <text class="cls-149" transform="translate(906.71 834.58) rotate(-25)"><tspan class="cls-205">R</tspan><tspan class="cls-206" x="7.97" y="0">A</tspan><tspan x="16.9" y="0">MSHERRED</tspan></text>
    <text class="cls-118" transform="translate(282.84 749.15) rotate(60)">HANS<tspan class="cls-207" x="35.47" y="0"> </tspan><tspan class="cls-144" x="37.98" y="0">T</tspan><tspan class="cls-208" x="44.18" y="0">A</tspan><tspan x="52.76" y="0">USENS GADE</tspan></text>
    <text class="cls-149" transform="translate(1019.48 801.79) rotate(63)">CL<tspan class="cls-209" x="15.45" y="0">A</tspan><tspan x="24.03" y="0">US BE</tspan><tspan class="cls-210" x="59.07" y="0">R</tspan><tspan x="67.01" y="0">GS GADE</tspan></text>
    <text class="cls-122" transform="matrix(0.71, 0.71, -0.71, 0.71, 571.81, 63.62)">THO<tspan class="cls-211" x="31.49" y="0">M</tspan><tspan x="45.1" y="0">AS </tspan><tspan class="cls-212" x="67.67" y="0">B</tspan><tspan x="76.73" y="0">.</tspan><tspan class="cls-213" x="80.28" y="0"> </tspan><tspan x="83.21" y="0">THRIGES GADE</tspan></text>
    <text class="cls-122" transform="translate(222.98 330.17) rotate(-22)"><tspan class="cls-214">E</tspan><tspan x="8.74" y="0">JLS</tspan><tspan class="cls-215" x="31.61" y="0">K</tspan><tspan x="40.61" y="0">OVSGADE</tspan></text>
    <text class="cls-149" transform="translate(358.44 133.04) rotate(65)">LE<tspan class="cls-210" x="14.16" y="0">R</tspan><tspan x="22.1" y="0">CHESGADE</tspan></text>
    <text class="cls-216" transform="translate(589.38 208.23) rotate(37)"><tspan class="cls-217">D</tspan><tspan x="9.58" y="0">ANNEB</tspan><tspan class="cls-218" x="53.08" y="0">R</tspan><tspan x="61.02" y="0">OGSGADE</tspan></text>
    <text class="cls-219" transform="translate(1105.81 164.03)">G OM<tspan class="cls-220" x="65.28" y="0">R</tspan><tspan class="cls-221" x="77.24" y="0">DE</tspan></text>
    <text class="cls-219" transform="translate(1105.81 211.38)">AFS<tspan class="cls-222" x="35.07" y="0">P</tspan><tspan x="44.94" y="0">R</tspan><tspan class="cls-223" x="74.15" y="0">E</tspan><tspan x="85.34" y="0">T</tspan><tspan class="cls-224" x="96.29" y="0"> </tspan><tspan x="100.17" y="0">V</tspan><tspan class="cls-225" x="112.46" y="0">E</tspan><tspan x="123.7" y="0">J</tspan></text>
    <text class="cls-219" transform="translate(1105.81 261.72)">HOVEDV<tspan class="cls-226" x="79.64" y="0">E</tspan><tspan x="90.87" y="0">J</tspan></text>
    <text class="cls-227" transform="translate(552.62 903.28) rotate(-2)">VINDEGADE</text>
    <text class="cls-227" transform="translate(378.27 905.7) rotate(2)">VINDEGADE</text>
    <text class="cls-118" transform="translate(739.27 944.7) rotate(-30)">G<tspan class="cls-145" x="9.49" y="0">R</tspan><tspan class="cls-165" x="17.46" y="0">A</tspan><tspan x="25.67" y="0">VENE</tspan></text>
    <text class="cls-228" transform="translate(496.59 410.8) rotate(-3)"><tspan class="cls-229">D</tspan><tspan x="9.58" y="0">ANNEB</tspan><tspan class="cls-230" x="53.08" y="0">R</tspan><tspan x="61.02" y="0">OGSGADE</tspan></text>
    <text class="cls-118" transform="translate(349.28 442.68) rotate(83)"><tspan class="cls-231">B</tspan><tspan class="cls-119" x="7.74" y="0">Y</tspan><tspan x="15.58" y="0">ENS B</tspan><tspan class="cls-121" x="50.79" y="0">R</tspan><tspan x="58.73" y="0">O</tspan></text>
    <text class="cls-149" transform="translate(311.5 397.54) rotate(-25)"><tspan class="cls-232">K</tspan><tspan class="cls-233" x="7.71" y="0">O</tspan><tspan class="cls-234" x="17.46" y="0">T</tspan><tspan x="25.32" y="0">TESGADE</tspan></text>
    <text class="cls-228" transform="translate(653.81 512.66) rotate(-3)">A<tspan class="cls-229" x="8.99" y="0">D</tspan><tspan class="cls-235" x="18.56" y="0">A</tspan><tspan x="27.49" y="0">MSGADE</tspan></text>
    <text class="cls-236" transform="translate(929.99 335.18) rotate(-61)">SKIBHUSV<tspan class="cls-237" x="61.19" y="0">E</tspan><tspan x="68.68" y="0">J</tspan></text>
    <text class="cls-124" transform="matrix(0.26, 0.97, -0.97, 0.26, 881.88, 317.82)">THO<tspan class="cls-238" x="31.49" y="0">M</tspan><tspan x="45.1" y="0">AS </tspan><tspan class="cls-239" x="67.67" y="0">B</tspan><tspan x="76.73" y="0">.</tspan><tspan class="cls-240" x="80.28" y="0"> </tspan><tspan x="83.21" y="0">THRIGES GADE</tspan></text>
    <text class="cls-228" transform="translate(216.25 183.89) rotate(-42)">SEEBLADSGADE</text>
    <g>
      <path class="cls-116" d="M384.73,1402.94c0,7.36,5.54,13.58,13.18,15.68,4,5.19,5.7,18.78,5.7,18.78s1.7-13.59,5.69-18.78c7.65-2.1,13.19-8.32,13.19-15.68" transform="translate(29.26 -41.97)"/>
      <path class="cls-116" d="M422.49,1402.94c0-9.08-8.46-16.44-18.88-16.44s-18.88,7.36-18.88,16.44" transform="translate(29.26 -41.97)"/>
    </g>
    <text class="cls-241" transform="translate(424.13 1371.09)">8</text>
    <g>
      <path class="cls-116" d="M444.09,1285.32c0,7.35,5.54,13.58,13.18,15.68,4,5.19,5.7,18.78,5.7,18.78s1.7-13.59,5.69-18.78c7.65-2.1,13.19-8.33,13.19-15.68" transform="translate(29.26 -41.97)"/>
      <path class="cls-116" d="M481.85,1285.32c0-9.08-8.46-16.44-18.88-16.44s-18.88,7.36-18.88,16.44" transform="translate(29.26 -41.97)"/>
    </g>
    <text class="cls-242" transform="translate(484.96 1252.14)">3</text>
    <g>
      <path class="cls-116" d="M709.54,1297.91c0,7.35,5.54,13.58,13.18,15.68,4,5.19,5.7,18.78,5.7,18.78s1.7-13.59,5.69-18.78c7.65-2.1,13.19-8.33,13.19-15.68" transform="translate(29.26 -41.97)"/>
      <path class="cls-116" d="M747.3,1297.91c0-9.08-8.46-16.44-18.88-16.44s-18.88,7.36-18.88,16.44" transform="translate(29.26 -41.97)"/>
    </g>
    <text class="cls-242" transform="translate(750.4 1264.05)">7</text>
    <g>
      <path class="cls-116" d="M618.71,1154.11c0,7.35,5.54,13.57,13.19,15.68,4,5.18,5.69,18.77,5.69,18.77s1.7-13.59,5.7-18.77c7.64-2.11,13.18-8.33,13.18-15.68" transform="translate(29.26 -41.97)"/>
      <path class="cls-116" d="M656.47,1154.11c0-9.08-8.45-16.45-18.88-16.45s-18.88,7.37-18.88,16.45" transform="translate(29.26 -41.97)"/>
    </g>
    <text class="cls-241" transform="translate(657.33 1122.41)">2</text>
    <g>
      <path class="cls-116" d="M919.67,1167c0,7.35,5.54,13.58,13.19,15.68,4,5.19,5.69,18.78,5.69,18.78s1.7-13.59,5.7-18.78c7.64-2.1,13.18-8.33,13.18-15.68" transform="translate(29.26 -41.97)"/>
      <path class="cls-116" d="M957.43,1167c0-9.08-8.45-16.44-18.88-16.44s-18.88,7.36-18.88,16.44" transform="translate(29.26 -41.97)"/>
    </g>
    <text class="cls-242" transform="translate(961.54 1133.32)">1</text>
    <g>
      <path class="cls-116" d="M332.88,1158.82c0,7.35,5.54,13.58,13.18,15.68,4,5.19,5.7,18.78,5.7,18.78s1.7-13.59,5.7-18.78c7.64-2.1,13.18-8.33,13.18-15.68" transform="translate(29.26 -41.97)"/>
      <path class="cls-116" d="M370.64,1158.82c0-9.08-8.45-16.44-18.88-16.44s-18.88,7.36-18.88,16.44" transform="translate(29.26 -41.97)"/>
    </g>
    <text class="cls-241" transform="translate(372.51 1127.34)">9</text>
    <g>
      <path class="cls-116" d="M200.63,1273.32c0,7.35,5.54,13.57,13.18,15.68,4,5.18,5.7,18.78,5.7,18.78s1.7-13.6,5.69-18.78c7.65-2.11,13.19-8.33,13.19-15.68" transform="translate(29.26 -41.97)"/>
      <path class="cls-116" d="M238.39,1273.32c0-9.08-8.45-16.45-18.88-16.45s-18.88,7.37-18.88,16.45" transform="translate(29.26 -41.97)"/>
    </g>
    <text class="cls-241" transform="translate(240.32 1244.05)">6</text>
    <g>
      <path class="cls-116" d="M225,1322c0,7.35,5.54,13.58,13.19,15.68,4,5.19,5.69,18.78,5.69,18.78s1.7-13.59,5.7-18.78c7.64-2.1,13.18-8.33,13.18-15.68" transform="translate(29.26 -41.97)"/>
      <path class="cls-116" d="M262.71,1322c0-9.08-8.45-16.44-18.88-16.44S225,1312.87,225,1322" transform="translate(29.26 -41.97)"/>
    </g>
    <text class="cls-241" transform="translate(264.19 1291.68)">4</text>
    <text class="cls-241" transform="translate(248.68 1339.32)">5</text>
  </g>
</svg>
